<?xml version="1.0" standalone="no"?>
<!DOCTYPE svg PUBLIC "-//W3C//DTD SVG 1.1//EN" "http://www.w3.org/Graphics/SVG/1.1/DTD/svg11.dtd" >
<svg xmlns="http://www.w3.org/2000/svg">
<metadata>Generated by IcoMoon</metadata>
<defs>
<font id="icomoon" horiz-adv-x="1024">
<font-face units-per-em="1024" ascent="960" descent="-64" />
<missing-glyph horiz-adv-x="1024" />
<glyph unicode="&#x20;" horiz-adv-x="512" d="" />
<glyph unicode="&#xe900;" glyph-name="icon-02" horiz-adv-x="1149" d="M1136.955 555.609l-544.763 398.633c-4.845 3.598-10.943 5.759-17.546 5.759s-12.702-2.161-17.626-5.815l0.080 0.056-544.763-398.633c-7.531-5.438-12.375-14.192-12.375-24.077 0-6.625 2.176-12.741 5.851-17.674l-0.056 0.078c5.499-7.471 14.258-12.265 24.138-12.265 6.589 0 12.679 2.132 17.62 5.744l-0.084-0.059 528.313 386.022 525.571-385.748c4.868-3.581 10.927-5.81 17.495-6.030l0.052-0.001c9.876 0.069 18.615 4.874 24.068 12.255l0.058 0.082c3.764 4.883 6.033 11.087 6.033 17.821 0 9.468-4.486 17.889-11.448 23.253l-0.069 0.051zM992.471 500.776c-16.504 0-29.884-13.379-29.884-29.884v0-475.125h-238.796v259.359c0.008 0.571 0.012 1.244 0.012 1.919 0 82.377-66.78 149.157-149.157 149.157-81.702 0-148.062-65.69-149.144-147.136l-0.001-0.102c-0.131-0.577-0.206-1.239-0.206-1.919s0.075-1.342 0.217-1.979l-0.011 0.060v-259.359h-238.796v475.125c0 16.504-13.379 29.884-29.884 29.884s-29.884-13.379-29.884-29.884v0-505.009c0-16.504 13.379-29.884 29.884-29.884v0h298.29c15.627 0.080 28.438 12.034 29.875 27.296l0.009 0.12s0 1.371 0 2.193v289.516c1.779 48.111 41.21 86.439 89.594 86.439 47.322 0 86.080-36.664 89.418-83.134l0.017-0.289v-292.258c-0.074-0.33-0.117-0.708-0.117-1.097s0.043-0.767 0.123-1.131l-0.006 0.035c1.315-15.408 14.146-27.417 29.782-27.417 0.036 0 0.072 0 0.108 0h298.832c16.504 0 29.884 13.379 29.884 29.884v0 504.735c-0.306 16.476-13.659 29.733-30.144 29.884h-0.014z" />
<glyph unicode="&#xe901;" glyph-name="icon-03" horiz-adv-x="1225" d="M140.516 343.971h2.715c18.976 0.798 36.83 4.589 53.434 10.911l-1.165-0.39 120.83-175.136c4.732-6.616 12.39-10.877 21.043-10.877s16.311 4.261 20.99 10.799l0.053 0.078 121.169 174.457c15.449-6.082 33.323-9.887 52.003-10.515l0.266-0.007h2.715c30.049-0.1 56.602-14.976 72.787-37.738l0.186-0.276c4.766-6.35 12.249-10.436 20.69-10.522h0.014c0.267-0.012 0.58-0.018 0.894-0.018 5.197 0 9.975 1.797 13.745 4.804l-0.045-0.034c6.654 4.729 10.943 12.409 10.943 21.090 0 5.434-1.681 10.476-4.55 14.634l0.056-0.086c-24.886 34.688-64.409 57.513-109.345 59.387l-0.285 0.009h-3.055c-55.191 0.309-100.613 41.736-107.201 95.187l-0.053 0.527c16.921 12.509 31.383 27.078 43.387 43.552l0.397 0.571c26.145 36.091 43.963 79.84 49.761 127.303l0.133 1.334c1.906 2.031 3.499 4.385 4.685 6.965l0.067 0.163c9.733 23.473 15.386 50.733 15.386 79.315 0 2.425-0.041 4.84-0.121 7.246l0.009-0.35c0.050 1.663 0.079 3.619 0.079 5.581 0 106.754-84.393 193.796-190.102 198.052l-0.386 0.012c-28.106-0.324-54.566-7.056-78.086-18.798l1.040 0.47c-9.964-0.749-19.209-2.557-28.028-5.328l0.875 0.237c-88.247-25.456-137.461-131.691-110.987-237.587 3.097-12.054 6.695-22.336 11.043-32.213l-0.521 1.327c1.168-2.732 2.65-5.085 4.442-7.163l-0.030 0.035c7.505-69.067 42.127-128.844 92.835-169.317l0.503-0.388c-6.506-54.148-52.17-95.714-107.541-95.714-0.018 0-0.037 0-0.055 0h-2.373c-75.443-2.632-135.62-64.353-135.764-140.162v-151.051c-0.013-0.304-0.020-0.661-0.020-1.020 0-14.134 11.368-25.613 25.459-25.793h451.432c13.839 0.741 24.78 12.142 24.78 26.099 0 0.132-0.001 0.263-0.003 0.394v-0.020c-0.538 13.462-11.315 24.239-24.727 24.775l-0.050 0.002h-425.96v125.582c0 49.487 40.117 89.604 89.604 89.604v0zM262.025 887.027c6.117 2.388 13.233 4.179 20.63 5.051l0.414 0.040c1.633-0.31 3.511-0.487 5.431-0.487s3.798 0.177 5.619 0.516l-0.189-0.029c17.183 9.404 37.644 14.934 59.397 14.934 0.119 0 0.239 0 0.358 0h-0.018c77.744-4.253 139.175-68.332 139.175-146.758 0-0.789-0.006-1.576-0.019-2.362l0.001 0.119c-15.183 11.354-34.238 18.307-54.9 18.666l-0.084 0.001h-132.37c-0.036 0-0.079 0-0.122 0-6.71 0-12.915 2.163-17.955 5.831l0.088-0.061c-4.599 3.271-8.124 7.781-10.118 13.043l-0.064 0.194c-4.85 11.093-15.727 18.703-28.382 18.703-0.523 0-1.042-0.013-1.559-0.039l0.073 0.003c-13.16-0.696-23.987-9.909-27.109-22.197l-0.044-0.204c-6.561-26.134-18.316-48.911-34.178-68.178l0.237 0.296c-16.631 75.688 17.31 146.286 75.688 163.256zM203.646 671.162c21.352 20.057 38.729 44.061 51.012 70.884l0.579 1.41c13.409-10.178 30.378-16.305 48.779-16.305 0.511 0 1.021 0.005 1.53 0.014l-0.076-0.001h132.37c0.377 0.013 0.82 0.020 1.265 0.020 15.906 0 29.628-9.352 35.967-22.857l0.103-0.243c0.031-1.423 0.049-3.101 0.049-4.782 0-50.444-15.903-97.175-42.968-135.451l0.493 0.735c-20.703-31.321-55.086-52.156-94.434-53.957l-0.261-0.010c-36.581 1.35-68.629 19.628-88.698 47.189l-0.228 0.328c-24.466 31.22-40.849 69.859-45.395 112.045l-0.086 0.979zM339.41 459.71c15.768 0.048 30.939 2.527 45.183 7.081l-1.060-0.293c8.549-34.679 27.385-64.099 53.041-85.669l0.246-0.201-99.787-141.195-97.75 141.195c26.107 21.674 45.081 51.123 53.397 84.773l0.23 1.098c13.184-4.261 28.356-6.74 44.099-6.788h0.024zM1089.846 253.009h-3.734c-54.926 0.705-99.946 42.201-106.187 95.546l-0.048 0.507c32.922 25.089 58.37 58.4 73.466 96.907l0.526 1.522c2.409-8.112 8.587-14.403 16.453-16.921l0.178-0.049c1.174-0.232 2.523-0.365 3.903-0.365s2.73 0.133 4.036 0.387l-0.133-0.021c8.119 0.026 15.34 3.85 19.983 9.787l0.042 0.056c32.634 44.012 52.239 99.39 52.239 159.348 0 64.64-22.786 123.957-60.765 170.358l0.38-0.478c-34.037 40.719-84.466 66.754-141.004 67.879l-0.19 0.003h-10.861c-23.524 10.992-51.075 17.406-80.125 17.406-2.14 0-4.272-0.035-6.395-0.104l0.309 0.008c-65.436-3.182-122.557-36.184-158.428-85.609l-0.416-0.601c-36.643-49.061-58.67-110.903-58.67-177.89 0-4.642 0.106-9.259 0.315-13.849l-0.024 0.651c0.295-12.234 1.395-23.954 3.252-35.42l-0.198 1.479c4.193-32.18 12.9-61.382 25.544-88.372l-0.767 1.822c3.858-8.423 12.070-14.244 21.678-14.593l0.044-0.001c0.492-0.034 1.065-0.053 1.644-0.053 9.186 0 17.236 4.866 21.712 12.161l0.063 0.111 7.467 11.54c11.283-34.898 28.689-65.011 51.156-90.566l-0.244 0.283c9.061-10.107 19.073-19.041 29.992-26.779l0.555-0.373c-6.506-54.148-52.17-95.714-107.541-95.714-0.018 0-0.037 0-0.055 0h-2.373c-75.495-2.452-135.764-64.241-135.764-140.107 0-0.024 0-0.049 0-0.073v0.004-151.037c-0.001-0.102-0.002-0.222-0.002-0.342 0-13.871 11.245-25.116 25.116-25.116 0.12 0 0.24 0.001 0.36 0.003h623.478c14.059 0 25.456 11.397 25.456 25.456v0 0 149.68c0.005 0.427 0.007 0.932 0.007 1.438 0 75.749-60.083 137.464-135.192 140.089l-0.24 0.007zM694.433 518.767c-2.416 8.353-4.553 18.579-5.978 29.032l-0.131 1.175c-1.22 8.187-2.073 17.92-2.367 27.794l-0.009 0.377c-0.174 3.478-0.274 7.552-0.274 11.649 0 55.255 18.063 106.292 48.605 147.527l-0.475-0.671c27.337 37.987 70.351 63.216 119.372 66.164l0.44 0.021c0.818 0.016 1.784 0.026 2.751 0.026 23.733 0 46.146-5.652 65.967-15.683l-0.835 0.383c3.411-1.716 7.433-2.721 11.69-2.721 0.186 0 0.372 0.002 0.557 0.006h13.888c41.248-1.406 77.65-21.004 101.614-50.98l0.209-0.271c29.1-35.124 47.119-80.356 48.192-129.762l0.004-0.232c0.109-2.543 0.171-5.526 0.171-8.524 0-24.532-4.164-48.092-11.825-70.010l0.453 1.488c-2.376 6.449-5.091 12.558-8.146 19.007-22.971 52.125-63.362 93.067-113.647 116.175l-1.413 0.582c-2.978 1.122-6.419 1.771-10.013 1.771s-7.035-0.649-10.214-1.837l0.202 0.066c-6.385-2.889-11.321-8.044-13.853-14.416l-0.063-0.179c-4.131-10.208-8.456-18.803-13.379-26.999l0.482 0.865c-13.512-22.717-37.934-37.701-65.855-37.701-0.713 0-1.423 0.010-2.131 0.029l0.104-0.002h-13.576c-23.23-0.768-45.17-5.308-65.549-13.023l1.4 0.465c-29.774-12.537-55.157-29.974-76.332-51.554l-0.035-0.036zM757.224 504.851c8.888 6.011 19.065 11.374 29.82 15.585l1.066 0.368c14.179 5.486 30.578 8.817 47.71 9.162l0.147 0.002h10.182c1.966-0.109 4.267-0.171 6.583-0.171 46.751 0 87.583 25.341 109.51 63.037l0.325 0.604c1.595 2.249 2.968 4.826 3.996 7.572l0.077 0.234c23.928-15.22 43.53-35.147 57.929-58.609l0.449-0.788c-0.089-0.357-0.141-0.766-0.141-1.188s0.051-0.831 0.148-1.223l-0.007 0.035c-3.458-46.765-20.8-88.914-47.87-122.986l0.352 0.459c-20.426-27.74-52.398-45.955-88.686-47.509l-0.239-0.008c-60.415 0-113.702 57.36-131.352 137.8zM888.236 316.139c0.417-0.004 0.909-0.007 1.401-0.007 15.39 0 30.2 2.486 44.049 7.079l-0.988-0.284c10.513-43.89 38.141-79.948 75.263-101.415l0.765-0.408c-15.154-53.134-63.271-91.382-120.321-91.382s-105.167 38.249-120.105 90.501l-0.216 0.881c37.887 21.875 65.515 57.933 75.808 100.74l0.22 1.083c12.827-4.308 27.597-6.793 42.948-6.793 0.413 0 0.826 0.002 1.239 0.005h-0.063zM1174.359-14.786h-571.906v126.261c0 49.3 39.965 89.265 89.265 89.265v0h2.715c9.17 0.069 18.070 1.054 26.664 2.869l-0.868-0.154c22.663-72.702 89.364-124.56 168.178-124.56s145.515 51.859 167.842 123.315l0.335 1.246c7.83-1.666 16.848-2.652 26.086-2.715h3.442c48.86-0.575 88.247-40.317 88.247-89.259 0-0.002 0-0.004 0-0.006v0z" />
<glyph unicode="&#xe902;" glyph-name="icon-04" horiz-adv-x="956" d="M936.808 891.926h-115.87v48.955c0 0.003 0 0.006 0 0.009 0 10.559-8.56 19.119-19.119 19.119-0.204 0-0.407-0.003-0.609-0.010l0.030 0.001h-119.346c-0.001 0-0.001 0-0.002 0-10.457 0-18.953-8.395-19.116-18.814v-49.26h-367.597v48.955c0.001 0.086 0.002 0.188 0.002 0.29 0 10.399-8.43 18.829-18.829 18.829-0.001 0-0.002 0-0.002 0h-121.374c-0.001 0-0.001 0-0.002 0-10.457 0-18.953-8.395-19.116-18.814v-49.26h-115.87c-0.26 0.013-0.565 0.020-0.871 0.020-10.464 0-18.965-8.407-19.116-18.834v-917.993c0-0.001 0-0.001 0-0.002 0-10.457 8.395-18.953 18.814-19.116h917.994c0.086-0.001 0.188-0.002 0.29-0.002 10.399 0 18.829 8.43 18.829 18.829 0 0.001 0 0.002 0 0.002v0 918.269c2.317 10.428-8.401 18.829-19.119 18.829zM917.689 664.821v-689.715h-877.425v689.715zM254.914 919.735v-95.593h-78.502v95.593zM703.33 824.143v95.593h80.53v-95.593zM154.976 783.588h119.056c10.559 0 19.119 8.56 19.119 19.119v0 0 48.955h367.597v-48.955c0-0.001 0-0.001 0-0.002 0-10.457 8.395-18.953 18.814-19.116h119.361c10.494 0.16 18.958 8.625 19.118 19.103v48.97h97.62v-146.575h-875.397v146.575h95.593v-48.955c0.962-10.148 8.97-18.157 19.034-19.112l0.085-0.007zM805.296 568.939h-652.347v-499.109h652.347zM193.213 415.991v115.87h112.683v-115.87zM193.213 263.043v115.87h112.683v-115.87zM193.213 110.094v115.87h112.683v-115.87zM347.61 415.991v115.87h115.87v-115.87zM347.61 263.043v115.87h115.87v-115.87zM347.61 110.094v115.87h115.87v-115.87zM498.24 415.991v115.87h115.87v-115.87zM498.24 263.043v115.87h115.87v-115.87zM498.24 110.094v115.87h115.87v-115.87zM651.189 415.991v115.87h115.87v-115.87zM651.189 263.043v115.87h115.87v-115.87zM651.189 110.094v115.87h115.87v-115.87z" />
<glyph unicode="&#xe903;" glyph-name="icon-05" horiz-adv-x="1033" d="M1014.133 960h-993.302c-0.081 0.001-0.178 0.002-0.274 0.002-11.353 0-20.557-9.204-20.557-20.557 0-0.001 0-0.001 0-0.002v0c-0.001-0.081-0.002-0.178-0.002-0.274 0-11.353 9.204-20.557 20.557-20.557 0.001 0 0.001 0 0.002 0h38.921v-605.739c0-30.275 24.543-54.818 54.818-54.818v0h808.017c30.275 0 54.818 24.543 54.818 54.818v0 605.465h34.809c0.164-0.005 0.357-0.007 0.55-0.007 11.411 0 20.679 9.175 20.829 20.55v0.014c0.011 0.254 0.018 0.552 0.018 0.851 0 10.822-8.476 19.665-19.152 20.252l-0.052 0.002zM936.291 312.6c0-7.569-6.136-13.704-13.704-13.704v0h-807.469c-7.569 0-13.704 6.136-13.704 13.704v0 605.739h834.878zM549.824 119.092v54.818h72.908c11.505 0 20.831 9.326 20.831 20.831s-9.326 20.831-20.831 20.831h-190.493c-11.505 0-20.831-9.326-20.831-20.831s9.326-20.831 20.831-20.831h75.649v-54.818l-147.46-147.46c-3.812-3.777-6.173-9.013-6.173-14.801s2.36-11.024 6.171-14.799l0.002-0.002c3.777-3.812 9.013-6.173 14.801-6.173s11.024 2.36 14.799 6.171l117.861 117.861v-103.058c0-11.505 9.326-20.831 20.831-20.831s20.831 9.326 20.831 20.831v0 103.058l117.31-117.585c3.835-3.684 9.053-5.952 14.801-5.952s10.966 2.268 14.808 5.959l-0.007-0.007c3.812 3.777 6.173 9.013 6.173 14.801s-2.36 11.024-6.171 14.799l-0.002 0.002zM595.597 653.293h159.794c0.001 0 0.001 0 0.002 0 11.408 0 20.674 9.171 20.829 20.542v0.015c0 0 0 0 0 0 0 99.509-80.59 180.195-180.062 180.351h-0.015c-11.198-0.148-20.254-9.109-20.556-20.255l-0.001-0.028v-159.52c0-11.505 9.326-20.831 20.831-20.831v0zM616.702 810.895c32.98-5.159 61.463-21.435 82.099-44.803l0.128-0.148c16.906-19.308 28.707-43.488 33.055-70.172l0.11-0.817h-115.392zM505.97 362.758c123.825 0 224.206 100.38 224.206 224.206v0c0.005 0.164 0.007 0.357 0.007 0.55 0 11.202-9.081 20.283-20.283 20.283-0.099 0-0.198-0.001-0.296-0.002h-182.529v181.996c0.001 0.081 0.002 0.178 0.002 0.274 0 11.353-9.204 20.557-20.557 20.557-0.001 0-0.001 0-0.002 0v0c-123.674 0-223.931-100.258-223.931-223.931s100.258-223.931 223.931-223.931v0zM484.865 768.137v-180.899c0-0.001 0-0.001 0-0.002 0-11.408 9.171-20.674 20.542-20.829h181.188c-10.714-91.394-87.703-161.638-181.098-161.638-100.665 0-182.27 81.605-182.27 182.27 0 93.395 70.244 170.384 160.783 181.017l0.855 0.082z" />
<glyph unicode="&#xe904;" glyph-name="icon-06" d="M919.713 170.167s0 0 0 0c-12.956 29.651-42.027 49.996-75.85 49.996-12.15 0-23.687-2.625-34.074-7.34l0.518 0.211h-3.199l-139.157-38.708c-9.586 26.348-30.134 46.686-55.979 55.785l-0.643 0.197-154.192 51.504c-29.204 35.886-73.372 58.624-122.85 58.624-1.797 0-3.587-0.030-5.37-0.090l0.259 0.007c-52.678-3.708-97.942-32.407-124.373-74.2l-0.388-0.657h-184.262c-11.131 0-20.154-9.023-20.154-20.154v0-252.081c0.177-11.059 9.095-19.977 20.137-20.153h118.7c0.191-0.006 0.416-0.010 0.642-0.010 11.198 0 20.297 8.991 20.471 20.147v17.291h54.703c0.001 0 0.002 0 0.003 0 11.018 0 19.971 8.842 20.151 19.817v5.775c27.594-1.695 52.66-11.278 73.316-26.498l-0.379 0.266c32.125-19.043 71.598-39.459 112.194-57.827l8.088-3.274s0 0 0 0c18.96-7.643 40.941-12.102 63.958-12.156h0.022c0.157-0.001 0.343-0.001 0.529-0.001 23.829 0 46.419 5.306 66.652 14.802l-0.961-0.405 308.064 110.046h1.6c33.33 12.259 56.674 43.733 56.674 80.658 0 10.188-1.777 19.961-5.038 29.026l0.188-0.598zM119.963 13.416h-79.975v210.814h79.015zM195.459 50.524h-35.509v173.706h34.869v-174.985zM852.853 96.27l-309.023-108.446c-15.197-6.876-32.95-10.883-51.64-10.883-17.243 0-33.689 3.41-48.7 9.594l0.851-0.31c-46.622 20.621-84.732 40.398-121.542 62.143l5.418-2.961c-26.089 18.333-58.052 30.016-92.617 31.969l-0.474 0.021v159.95c19.421 35.082 54.426 59.487 95.42 63.932l0.55 0.048c1.735 0.093 3.765 0.146 5.809 0.146 37.66 0 71.109-18.026 92.19-45.921l0.211-0.291c2.446-3.876 6.096-6.801 10.417-8.276l0.14-0.041 159.95-54.063c19.183-5.346 33.024-22.664 33.024-43.214 0-3.391-0.377-6.694-1.091-9.869l0.057 0.299c-2.934-10.197-9.734-18.458-18.671-23.253l-0.203-0.1c-5.524-3.219-12.159-5.119-19.238-5.119-3.51 0-6.911 0.467-10.144 1.343l0.271-0.063-179.144 56.942c-1.863 0.627-4.008 0.988-6.238 0.988-11.146 0-20.182-9.036-20.182-20.182 0-8.917 5.782-16.483 13.802-19.153l0.143-0.041 179.464-56.622c6.493-1.828 13.95-2.879 21.652-2.879 0.036 0 0.071 0 0.107 0h-0.006c14.089 0.063 27.307 3.731 38.799 10.127l-0.411-0.21c17.588 10.191 30.712 26.435 36.64 45.821l0.148 0.564v4.799l150.353 41.587c21.433 7.358 50.224 9.917 63.98-19.194s-21.113-52.464-29.751-56.942zM1003.846 891.861h-119.003c-0.001 0-0.002 0-0.003 0-11.018 0-19.971-8.842-20.151-19.817v-17.292h-55.663c-0.001 0-0.002 0-0.003 0-11.018 0-19.971-8.842-20.151-19.817v-5.775c-27.594 1.695-52.66 11.278-73.316 26.498l0.379-0.266c-32.090 19.155-71.449 39.67-111.936 58.141l-8.027 3.28c-18.643 7.604-40.275 12.017-62.938 12.017-24.429 0-47.661-5.128-68.677-14.366l1.096 0.43-81.575-28.471-67.499 67.819c-3.679 3.563-8.701 5.759-14.236 5.759s-10.556-2.196-14.241-5.764l-223.925-223.925c-3.077-3.478-4.956-8.077-4.956-13.116s1.879-9.638 4.974-13.137l-0.018 0.021 380.681-380.681c3.79-3.155 8.709-5.070 14.076-5.070s10.286 1.915 14.111 5.099l-0.036-0.029 203.456 203.456h16.315c52.678 3.708 97.942 32.407 124.373 74.2l0.388 0.657h185.222c10.954 0 19.834 8.88 19.834 19.834v0 250.482c0.002 0.102 0.003 0.223 0.003 0.343 0 10.441-8.2 18.966-18.511 19.489l-0.047 0.002zM351.89 706.959c5.068-33.468 28.319-60.456 59.198-70.836l0.623-0.182 39.988-13.756c-3.125-14.323-10.248-26.651-20.129-36.125l-0.025-0.024c-13.183-12.39-30.982-20.002-50.558-20.002-40.812 0-73.897 33.085-73.897 73.897 0 19.497 7.55 37.23 19.887 50.435l-0.039-0.043c7.044 6.799 15.305 12.396 24.414 16.423l0.538 0.212zM391.878 784.695c-13.909-7.985-24.895-19.691-31.786-33.767l-0.204-0.462c-53.173-10.297-92.776-56.479-92.776-111.911 0-7.371 0.7-14.579 2.038-21.561l-0.114 0.713c4.469-23.662 15.862-44.137 31.964-59.796l0.026-0.025c20.518-20.357 48.777-32.936 79.975-32.936s59.457 12.58 79.982 32.944l-0.007-0.007c14.058 13.397 24.603 30.357 30.192 49.435l0.198 0.789 67.499-23.033c-1.812-8.071-2.85-17.341-2.85-26.854 0-27.983 8.982-53.867 24.22-74.928l-0.258 0.374-45.426-45.426c-20.652 14.903-46.471 23.836-74.377 23.836s-53.725-8.933-74.755-24.095l0.378 0.259-203.776 204.736c14.903 20.652 23.836 46.471 23.836 74.377s-8.933 53.725-24.095 74.755l0.259-0.378 45.746 45.426c20.652-14.903 46.471-23.836 74.377-23.836s53.725 8.933 74.755 24.095l-0.378-0.259 43.187-43.187c-10.069-1.404-19.141-4.674-27.207-9.461l0.335 0.184zM607.81 512.14c-7.362 11.867-12.021 26.11-12.788 41.378l-0.008 0.209c10.139-7.43 21.755-13.791 34.171-18.533l1.018-0.342zM301.986 911.695l45.746-45.426c-13.031-8.253-28.896-13.152-45.906-13.152s-32.875 4.899-46.262 13.362l0.356-0.21zM153.232 762.942c8.069-12.922 12.854-28.615 12.854-45.426s-4.785-32.504-13.067-45.792l0.213 0.366-45.426 45.106zM460.016 364.986l-44.146 45.746c12.958 8.13 28.709 12.953 45.586 12.953s32.627-4.823 45.949-13.165l-0.363 0.212zM693.863 565.243c-7.038 0-14.076 0-20.794 0v0c-30.163 4.541-56.013 20.214-73.712 42.624l-0.185 0.243-2.559 3.199c-2.341 4.331-6.147 7.618-10.74 9.235l-0.137 0.042-158.99 51.504c-19.183 5.346-33.024 22.664-33.024 43.214 0 3.391 0.377 6.694 1.091 9.869l-0.057-0.299c2.906 10.137 9.43 18.43 18.051 23.571l0.183 0.101c5.573 3.026 12.202 4.805 19.247 4.805 3.619 0 7.127-0.469 10.469-1.351l-0.285 0.064 179.144-56.942c1.586-0.441 3.408-0.695 5.289-0.695 9.275 0 17.11 6.168 19.626 14.626l0.037 0.145c0.492 1.645 0.776 3.536 0.776 5.493 0 8.714-5.619 16.115-13.432 18.778l-0.14 0.041-142.675 44.786-75.177 76.776 63.98 22.713s0 0 0 0c14.744 6.288 31.897 9.944 49.904 9.944s35.16-3.655 50.758-10.265l-0.853 0.321c46.612-20.747 84.717-40.625 121.52-62.466l-5.396 2.965c26.035-18.19 57.855-29.846 92.255-31.965l0.516-0.025v-159.95c-19.682-33.722-54.088-57.001-94.171-61.058l-0.52-0.043zM829.181 815.085h34.549v-174.985h-34.549zM983.693 640.1h-79.015v212.094h79.015z" />
<glyph unicode="&#xe905;" glyph-name="icon-07" d="M974.507 695.808c27.334 0 49.493 22.159 49.493 49.493v0 165.205c0 27.334-22.159 49.493-49.493 49.493v0h-496.64c-27.334 0-49.493-22.159-49.493-49.493v-165.205c0-27.334 22.159-49.493 49.493-49.493v0h16.725v-34.133h-98.987v222.549l-48.811-49.493-34.133 34.133-34.133-34.133-34.133 34.133-34.133-34.133-34.133 34.133-34.133-34.133-43.008 49.493v-221.525h-16.384c-45.62 0-82.603-36.982-82.603-82.603v0-561.493c0-45.62 36.982-82.603 82.603-82.603v0h858.795c45.62 0 82.603 36.982 82.603 82.603v0 0 561.493c0 0.001 0 0.003 0 0.004 0 39.699-28.005 72.856-65.337 80.795l-0.541 0.096v34.133zM462.507 745.301v165.205c0.359 8.335 7.025 15.001 15.327 15.359l0.033 0.001h496.64c0.103 0.002 0.224 0.004 0.345 0.004 8.86 0 16.043-7.183 16.043-16.043 0-0.121-0.001-0.242-0.004-0.363v0.018-164.181c0.002-0.103 0.004-0.224 0.004-0.345 0-8.86-7.183-16.043-16.043-16.043-0.121 0-0.242 0.001-0.363 0.004h-496.622c-8.563 0.374-15.364 7.407-15.364 16.028 0 0.125 0.001 0.25 0.004 0.374v-0.019zM148.821 789.333l34.133 34.133 34.133-34.133 34.133 34.133 34.133-34.133 34.133 34.133 34.133-34.133 16.725 16.725v-240.981h-238.251v239.616zM82.603 629.589h16.384v-65.877h-34.133v-34.133h364.544v34.133h-34.133v65.877h132.096v-132.096h-395.264v-34.133h396.288v-264.192h-494.251v265.216h64.853v34.133h-64.853v81.579c0 0.003 0 0.007 0 0.011 0 26.974 21.579 48.909 48.416 49.482l0.053 0.001zM989.867 580.096v-379.904h-64.853v-34.133h64.853v-148.48c-1.109-26.101-22.274-46.909-48.418-47.445l-0.051-0.001h-858.795c-26.54 0.561-47.908 21.929-48.468 48.416l-0.001 0.053v148.48h857.771v34.133h-330.411v428.373h379.904c26.89-0.574 48.469-22.508 48.469-49.483 0-0.004 0-0.007 0-0.011v0.001zM925.013 662.699h-396.629v34.133h396.629zM313.685 1.877h396.629v132.437h-396.629zM347.819 100.864h330.411v-65.536h-331.435zM594.603 497.835h98.987v98.645h-98.987zM628.736 563.712h34.133v-34.133h-34.133zM726.699 497.835h98.987v98.645h-98.987zM760.832 563.712h34.133v-34.133h-34.133zM858.795 497.835h98.987v98.645h-98.987zM892.928 563.712h34.133v-34.133h-34.133zM594.603 365.397h98.987v98.987h-98.987zM628.736 431.616h34.133v-34.133h-34.133zM726.699 365.397h98.987v98.987h-98.987zM760.832 431.616h34.133v-34.133h-34.133zM858.795 365.397h98.987v98.987h-98.987zM892.928 431.616h34.133v-34.133h-34.133zM594.603 233.301h98.987v98.987h-98.987zM628.736 299.52h34.133v-34.133h-34.133zM726.699 233.301h98.987v98.987h-98.987zM760.832 299.52h34.133v-34.133h-34.133zM858.795 233.301h98.987v98.987h-98.987zM892.928 299.52h34.133v-34.133h-34.133zM65.877 233.301h429.739v198.315h-429.739zM100.011 398.507h362.496v-132.096h-363.52zM165.205 695.808h165.205v-33.109h-165.205v33.109zM165.205 629.589h82.603v-33.109h-82.603v33.109z" />
<glyph unicode="&#xe906;" glyph-name="icon-08" horiz-adv-x="908" d="M863.874 871.863h-322.943c0.574 3.736 0.902 8.045 0.902 12.431 0 47.562-38.556 86.118-86.118 86.118s-86.118-38.556-86.118-86.118c0-3.075 0.161-6.112 0.475-9.104l-0.032 0.373c-0.157-0.555-0.247-1.192-0.247-1.85s0.090-1.295 0.258-1.9l-0.012 0.050h-324.289c-0.2 0.003-0.437 0.005-0.674 0.005-23.479 0-42.534-18.939-42.721-42.374v-850.436c0.186-23.588 19.163-42.683 42.687-43.059h818.832c0.401-0.013 0.872-0.021 1.346-0.021 23.781 0 43.059 19.278 43.059 43.059 0 0.007 0 0.015 0 0.022v-0.001 850.081c-0.186 23.588-19.163 42.683-42.687 43.059h-0.036zM454.812 915.259c23.595 0 42.723-19.128 42.723-42.723v0h-86.118c0.379 23.676 19.66 42.723 43.39 42.723 0.002 0 0.004 0 0.005 0v0zM571.879 829.141v-43.059h-232.788v43.059zM865.556-20.941h-820.142v850.081h235.48v-64.925c0-0.001 0-0.002 0-0.003 0-11.89 9.639-21.53 21.53-21.53 0.118 0 0.236 0.001 0.354 0.003h302.742c11.89 0 21.53 9.639 21.53 21.53v0 64.925h235.48v-850.081zM390.223 441.272h430.928v-43.059h-430.928v43.059zM390.223 527.39h430.928v-43.059h-430.928v43.059zM390.223 139.522h430.928v-43.059h-430.928v43.059zM390.223 225.64h430.928v-43.059h-430.928v43.059zM302.76 599.38c-3.182 8.246-10.995 14.013-20.17 14.129h-172.923c-11.745-0.189-21.193-9.755-21.193-21.527 0-0.001 0-0.002 0-0.003v0-172.237c-0.007-0.201-0.011-0.438-0.011-0.676 0-11.519 9.338-20.857 20.857-20.857 0.122 0 0.244 0.001 0.366 0.003h172.555c11.448 0.554 20.52 9.97 20.52 21.506 0 0.008 0 0.017 0 0.025v-0.001 120.431l79.727 79.727-30.276 30.276zM261.046 441.272h-129.85v129.177h129.514v-14.129l-43.059-41.377-27.921 27.585-30.276-30.276 42.386-43.059c3.922-3.767 9.259-6.087 15.138-6.087s11.216 2.32 15.145 6.094l27.914 27.914zM302.76 297.629c-3.103 8.305-10.963 14.114-20.182 14.129h-172.911c-0.001 0-0.002 0-0.003 0-11.705 0-21.193-9.489-21.193-21.193 0-0.118 0.001-0.236 0.003-0.354v0.018-171.227c-0.002-0.1-0.003-0.218-0.003-0.336 0-11.705 9.489-21.193 21.193-21.193 0.001 0 0.002 0 0.003 0h172.573c11.448 0.554 20.52 9.97 20.52 21.506 0 0.008 0 0.017 0 0.025v-0.001 119.422l79.727 80.063-30.276 30.276zM261.046 139.522h-129.85v129.514h129.514v-12.783l-43.059-43.059-27.921 27.921-30.276-30.276 42.386-43.059c3.85-3.927 9.21-6.361 15.138-6.361s11.288 2.434 15.135 6.358l27.924 27.924z" />
<glyph unicode="&#xe907;" glyph-name="icon-09" d="M512 714.521c-146.614 0-265.468-118.854-265.468-265.468s118.854-265.468 265.468-265.468c146.614 0 265.468 118.854 265.468 265.468v0 0c0 0.104 0 0.228 0 0.351 0 146.297-118.498 264.918-264.748 265.118h-0.019zM512 221.458c-125.697 0-227.595 101.898-227.595 227.595s101.898 227.595 227.595 227.595c125.697 0 227.595-101.898 227.595-227.595v0c0.001-0.208 0.001-0.455 0.001-0.702 0-125.768-101.855-227.746-227.576-227.945h-0.019zM971.748 561.622h-37.874c-10.616 39.97-25.247 74.953-43.908 107.32l1.124-2.115 26.301 25.951c8.713 9.555 14.049 22.321 14.049 36.333 0 0.542-0.008 1.082-0.024 1.62l0.002-0.079c0.017 0.498 0.026 1.084 0.026 1.672 0 13.971-5.34 26.695-14.090 36.242l0.036-0.040-85.216 86.268c-9.682 8.835-22.62 14.247-36.822 14.247s-27.14-5.412-36.865-14.286l0.043 0.039-26.301-26.301c-30.289 18.164-65.341 32.849-102.509 42.208l-2.697 0.575v36.471c-0.371 28.341-22.951 51.289-51.111 52.25l-0.089 0.002h-125.545c-28.707-0.199-51.901-23.516-51.901-52.251 0 0 0-0.001 0-0.001v0-37.874c-39.934-10.423-74.935-25.069-107.221-43.867l2.016 1.084-25.249 27.704c-9.682 8.835-22.62 14.247-36.822 14.247s-27.14-5.412-36.865-14.286l0.043 0.039-89.074-86.619c-8.932-10.086-14.386-23.431-14.386-38.049s5.454-27.963 14.438-38.11l-0.053 0.061 25.951-25.951c-17.817-30.278-32.471-65.29-42.143-102.317l-0.641-2.889h-36.121c-28.341-0.371-51.289-22.951-52.25-51.111l-0.002-0.089v-123.441c0.199-28.707 23.516-51.901 52.251-51.901 0 0 0.001 0 0.001 0h37.874c10.616-39.97 25.247-74.953 43.908-107.32l-1.124 2.115-27.704-25.249c-8.796-10.141-14.156-23.469-14.156-38.049s5.36-27.908 14.217-38.122l-0.061 0.072 85.567-85.216c9.682-8.835 22.62-14.247 36.822-14.247s27.14 5.412 36.865 14.286l-0.043-0.039 25.951 25.951c30.29-17.887 65.331-32.445 102.431-41.838l2.775-0.595v-37.874c0.195-28.657 23.274-51.859 51.864-52.252h123.478c28.7 0.39 51.862 23.552 52.252 52.215v37.911c39.949 10.507 74.942 25.146 107.264 43.885l-2.058-1.101 25.951-26.301c9.682-8.835 22.62-14.247 36.822-14.247s27.14 5.412 36.865 14.286l-0.043-0.039 83.814 85.216c9.844 9.811 16.064 23.253 16.48 38.147l0.002 0.078c0.021 0.532 0.033 1.156 0.033 1.783 0 14.393-6.375 27.297-16.456 36.041l-0.059 0.050-26.301 25.951c18.201 30.29 32.89 65.345 42.215 102.529l0.568 2.677h42.784c28.506 0.39 51.512 23.395 51.901 51.864v122.777c-0.19 28.342-22.917 51.314-51.145 51.9l-0.055 0.001zM986.126 386.279c-0.695-7.571-6.768-13.523-14.332-14.025l-0.047-0.002h-70.137l-2.455-14.378c-10.295-45.661-27.375-85.99-50.371-122.193l0.924 1.557-8.066-13.677 47.342-47.342c2.271-2.927 3.64-6.651 3.64-10.696s-1.369-7.769-3.67-10.736l0.030 0.040-85.567-85.567c-2.911-2.138-6.566-3.422-10.521-3.422s-7.609 1.283-10.57 3.457l0.050-0.035-45.94 49.096-11.573-7.014c-34.732-22.27-75.183-39.474-118.436-49.31l-2.55-0.488-14.378-2.455v-70.137c-0.525-7.527-6.501-13.503-13.98-14.025l-0.047-0.003h-125.195c-7.527 0.525-13.503 6.501-14.025 13.98l-0.003 0.047v70.137h-15.43c-44.935 9.928-84.615 27.169-119.818 50.603l1.287-0.806-11.923 7.014-44.888-47.342c-2.978-2.118-6.689-3.386-10.696-3.386s-7.718 1.268-10.753 3.425l0.057-0.039-86.619 84.866c-2.271 2.927-3.64 6.651-3.64 10.696s1.369 7.769 3.67 10.736l-0.030-0.040 47.342 48.745-7.014 11.923c-22.268 34.626-39.471 74.959-49.31 118.095l-0.488 2.541-2.455 14.378h-73.644c-7.713 0.377-13.846 6.633-14.027 14.361v124.861c0.365 7.596 6.432 13.663 13.994 14.026l0.034 0.001h70.137l1.052 15.43c10.061 44.556 27.284 83.863 50.599 118.755l-0.802-1.275 7.014 11.923-46.992 45.94c-2.271 2.927-3.64 6.651-3.64 10.696s1.369 7.769 3.67 10.736l-0.030-0.040 85.216 86.619c2.927 2.271 6.651 3.64 10.696 3.64s7.769-1.369 10.736-3.67l-0.040 0.030 47.342-47.342 11.923 7.014c34.073 21.632 73.606 38.756 115.77 49.218l2.761 0.58 14.378 2.455v73.644c0.191 7.669 6.358 13.837 14.009 14.027h123.459c7.596-0.365 13.663-6.432 14.026-13.994l0.001-0.034v-70.137l14.378-2.455c45.803-10.323 86.254-27.527 122.514-50.711l-1.528 0.914 17.885-8.066 47.342 47.342c2.927 2.271 6.651 3.64 10.696 3.64s7.769-1.369 10.736-3.67l-0.040 0.030 85.216-85.216c2.271-2.927 3.64-6.651 3.64-10.696s-1.369-7.769-3.67-10.736l0.030 0.040-48.745-47.693 7.014-11.573c21.628-34.492 38.758-74.498 49.215-117.126l0.582-2.808 2.455-14.378h70.137c7.64-0.543 13.678-6.702 14.026-14.345l0.001-0.033zM512 637.721c-0.104 0-0.227 0-0.351 0-104.78 0-189.721-84.941-189.721-189.721s84.941-189.721 189.721-189.721c104.78 0 189.72 84.941 189.721 189.72v0c-0.396 104.497-84.901 189.126-189.313 189.72h-0.057zM512 296.153c-83.863 0-151.847 67.984-151.847 151.847s67.984 151.847 151.847 151.847c83.863 0 151.847-67.984 151.847-151.847v0c0-83.863-67.984-151.847-151.847-151.847v0z" />
<glyph unicode="&#xe908;" glyph-name="icon-10" horiz-adv-x="935" d="M859.66 127.563c-40.112 59.371-64.073 132.523-64.187 211.264v214.070c-0.649 167.175-126.196 304.829-288.139 324.527l-1.578 0.156v82.42h-78.923v-81.42c-163.23-22.108-287.72-160.563-287.72-328.094 0-0.206 0-0.411 0.001-0.617v0.032-211.044c0-0.15 0-0.328 0-0.506 0-78.529-23.986-151.456-65.031-211.854l0.843 1.315-74.927-113.14h356.152c16.703-46.12 60.124-78.48 111.104-78.48 13.882 0 27.204 2.4 39.573 6.807l-0.824-0.256c33.609 12.294 59.636 38.321 71.664 71.103l0.265 0.827h356.901zM147.106 93.596c44.497 69.393 70.931 154.068 70.931 244.917 0 0.121 0 0.241 0 0.362v-0.019 211.044c-0.002 0.372-0.003 0.813-0.003 1.253 0 138.238 111.64 250.402 249.678 251.25h0.081c137.936 0 249.756-111.82 249.756-249.756v0-214.54c0-0.102 0-0.223 0-0.343 0-90.849 26.434-175.524 72.030-246.753l-1.099 1.836z" />
<glyph unicode="&#xe909;" glyph-name="icon-11" horiz-adv-x="1028" d="M638.675 788.049l209.039-209.039-529.821-529.821-208.075 209.52zM1006.66 836.214l-91.515 95.368c-16.774 16.545-39.826 26.763-65.264 26.763s-48.49-10.218-65.275-26.773l-91.022-89.578 209.039-208.557 104.038 104.038c12.973 12.839 21.007 30.648 21.007 50.333s-8.033 37.494-21.001 50.327l-0.006 0.006zM0-35.101c-0.323-1.479-0.508-3.177-0.508-4.919 0-11.432 7.965-21.003 18.648-23.467l0.162-0.031c1.592-0.23 3.43-0.361 5.298-0.361s3.707 0.131 5.505 0.385l-0.207-0.024 233.121 56.835-208.557 209.039z" />
<glyph unicode="&#xe90a;" glyph-name="icon-12" horiz-adv-x="796" d="M57.149 49.83c-0.010-0.559-0.016-1.217-0.016-1.878 0-61.508 49.601-111.431 110.985-111.952h457.71c0.559-0.010 1.217-0.016 1.878-0.016 61.508 0 111.431 49.601 111.952 110.985v685.37h-682.511zM796.34 902.851h-199.085l-56.681 57.149h-284.34l-57.149-57.149h-199.085v-113.361h796.34z" />
<glyph unicode="&#xe90b;" glyph-name="act-03" horiz-adv-x="1421" d="M511.148-62.296c-0.147-0.001-0.321-0.001-0.495-0.001-30.86 0-58.749 12.72-78.71 33.202l-0.023 0.023-400.399 392.732c-21.299 20.76-34.51 49.729-34.51 81.784 0 63.051 51.113 114.164 114.164 114.164 30.996 0 59.107-12.353 79.678-32.403l-0.024 0.024 320.319-318.616 715.607 716.459c20.544 21.416 49.397 34.723 81.358 34.723 62.228 0 112.673-50.446 112.673-112.673 0-30.267-11.934-57.746-31.353-77.989l0.037 0.039s0 0 0 0l-799.947-799.947c-20.311-19.499-47.94-31.509-78.374-31.521h-0.002z" />
<glyph unicode="&#xe90c;" glyph-name="close" d="M512 533.197l-362.035 362.035-72.397-72.397 362.035-362.035-362.035-362.035 72.397-72.397 362.035 362.035 362.035-362.035 72.397 72.397-362.035 362.035 362.035 362.035-72.397 72.397-362.035-362.035z" />
<glyph unicode="&#xe90d;" glyph-name="file-02" horiz-adv-x="1020" d="M932.090 23.579v-87.579h-61.594v87.579h-88.541v62.075h88.541v88.541h61.594v-88.541h88.060v-62.075zM721.805 414.797c-44.090 44.148-97.813 78.663-157.749 100.124l-2.973 0.929c62.716 44.645 103.132 117.085 103.132 198.964 0 134.475-109.014 243.489-243.489 243.489s-243.489-109.014-243.489-243.489c0-52.346 16.518-100.834 44.626-140.536l-0.51 0.759c17.383-24.59 38.28-45.333 62.218-62.016l0.819-0.541c-166.193-59.016-283.276-214.428-284.39-397.339l-0.001-0.135h66.406c0 196.929 159.642 356.571 356.571 356.571s356.571-159.642 356.571-356.571v0h65.925c0.003 0.626 0.005 1.368 0.005 2.109 0 116.319-47.275 221.596-123.66 297.666l-0.014 0.014zM243.97 716.511c0 0.143-0.001 0.312-0.001 0.481 0 98.597 79.929 178.526 178.526 178.526s178.526-79.929 178.526-178.526c0-98.428-79.655-178.252-178.018-178.526h-0.026c-0.286-0.002-0.624-0.003-0.962-0.003-98.332 0-178.045 79.714-178.045 178.045 0 0.001 0 0.002 0 0.003v0z" />
<glyph unicode="&#xe90e;" glyph-name="chevron-left" horiz-adv-x="768" d="M669.143 778.857l-303.429-303.429 303.429-303.429c14.286-14.286 14.286-37.143 0-51.429l-94.857-94.857c-14.286-14.286-37.143-14.286-51.429 0l-424 424c-14.286 14.286-14.286 37.143 0 51.429l424 424c14.286 14.286 37.143 14.286 51.429 0l94.857-94.857c14.286-14.286 14.286-37.143 0-51.429z" />
<glyph unicode="&#xe90f;" glyph-name="chevron-right" horiz-adv-x="695" d="M632.571 449.714l-424-424c-14.286-14.286-37.143-14.286-51.429 0l-94.857 94.857c-14.286 14.286-14.286 37.143 0 51.429l303.429 303.429-303.429 303.429c-14.286 14.286-14.286 37.143 0 51.429l94.857 94.857c14.286 14.286 37.143 14.286 51.429 0l424-424c14.286-14.286 14.286-37.143 0-51.429z" />
<glyph unicode="&#xe910;" d="M1023.458 448.271c0-282.62-229.109-511.729-511.729-511.729s-511.729 229.109-511.729 511.729c0 282.62 229.109 511.729 511.729 511.729s511.729-229.109 511.729-511.729z" />
<glyph unicode="&#xe911;" d="M466.194 687.331h91.070v-478.12h-91.070v478.12z" />
<glyph unicode="&#xe912;" d="M272.669 493.806h478.12v-91.070h-478.12v91.070z" />
<glyph unicode="&#xe913;" glyph-name="eye1" d="M512 768c-282.784 0-512-320-512-320s229.216-320 512-320 512 320 512 320-229.216 320-512 320zM512 256c-106.016 0-192 85.984-192 192s85.984 192 192 192 192-85.984 192-192-85.984-192-192-192zM512 576c-70.688 0-128-57.312-128-128s57.312-128 128-128 128 57.312 128 128-57.312 128-128 128z" />
<glyph unicode="&#xe914;" glyph-name="search" d="M640 959.84c-212.064 0-384-171.936-384-384 0-64.832 16.224-125.856 44.64-179.456l-267.008-266.944 0.224-0.192c-20.864-20.512-33.856-48.928-33.856-80.512 0-62.368 50.56-112.928 112.928-112.928 31.52 0 59.968 12.992 80.48 33.888l-0.064 0.064 266.912 266.88c53.632-28.512 114.752-44.8 179.744-44.8 212.064 0 384 171.936 384 384s-171.936 384-384 384zM153.44 9.696c-10.304-10.688-24.576-17.376-40.512-17.376-31.2 0-56.48 25.248-56.48 56.448 0 15.936 6.72 30.176 17.376 40.512l-0.288 0.256 258.112 258.112c22.56-30.432 49.44-57.312 79.808-79.936l-258.016-258.016zM640 255.808c-176.704 0-320 143.328-320 320 0 176.704 143.296 320 320 320 176.672 0 320-143.296 320-320 0-176.672-143.328-320-320-320zM640 799.84c8.8 0 16-7.168 16-16s-7.2-16-16-16c-106.048 0-192-85.984-192-192 0-8.832-7.168-16-16-16s-16 7.168-16 16c0 123.712 100.256 224 224 224z" />
<glyph unicode="&#xe915;" glyph-name="check" d="M954.857 627.428c0-14.286-5.714-28.571-16-38.857l-491.429-491.429c-10.286-10.286-24.571-16-38.857-16s-28.571 5.714-38.857 16l-284.571 284.571c-10.286 10.286-16 24.571-16 38.857s5.714 28.571 16 38.857l77.714 77.714c10.286 10.286 24.571 16 38.857 16s28.571-5.714 38.857-16l168-168.571 374.857 375.429c10.286 10.286 24.571 16 38.857 16s28.571-5.714 38.857-16l77.714-77.714c10.286-10.286 16-24.571 16-38.857z" />
<glyph unicode="&#xe916;" glyph-name="close1" horiz-adv-x="805" d="M741.714 195.428c0-14.286-5.714-28.571-16-38.857l-77.714-77.714c-10.286-10.286-24.571-16-38.857-16s-28.571 5.714-38.857 16l-168 168-168-168c-10.286-10.286-24.571-16-38.857-16s-28.571 5.714-38.857 16l-77.714 77.714c-10.286 10.286-16 24.571-16 38.857s5.714 28.571 16 38.857l168 168-168 168c-10.286 10.286-16 24.571-16 38.857s5.714 28.571 16 38.857l77.714 77.714c10.286 10.286 24.571 16 38.857 16s28.571-5.714 38.857-16l168-168 168 168c10.286 10.286 24.571 16 38.857 16s28.571-5.714 38.857-16l77.714-77.714c10.286-10.286 16-24.571 16-38.857s-5.714-28.571-16-38.857l-168-168 168-168c10.286-10.286 16-24.571 16-38.857z" />
<glyph unicode="&#xe917;" glyph-name="patient-02" horiz-adv-x="1225" d="M140.499 344.677v0c18.624 0.687 36.149 4.579 52.307 11.138l-1.030-0.37 121.014-174.342c4.795-6.733 12.574-11.072 21.366-11.072 5.416 0 10.447 1.646 14.62 4.465l-0.093-0.059c3.987 1.115 7.43 3.064 10.275 5.658l-0.020-0.018 121.014 174.342c15.128-6.189 32.653-10.081 50.999-10.76l0.278-0.008h2.564c0.122 0.001 0.265 0.001 0.409 0.001 29.928 0 56.433-14.651 72.736-37.171l0.18-0.262c4.267-6.526 11.54-10.779 19.807-10.779 0.248 0 0.494 0.004 0.74 0.011l-0.036-0.001c0.444-0.033 0.961-0.051 1.483-0.051 5.079 0 9.748 1.758 13.43 4.699l-0.043-0.033c6.642 4.697 10.925 12.347 10.925 20.997 0 5.589-1.788 10.76-4.824 14.973l0.052-0.076c-24.693 34.58-63.787 57.507-108.338 59.978l-0.369 0.016h-3.077c-55.252 0.107-100.822 41.418-107.625 94.836l-0.056 0.539c17.045 12.489 31.609 27.053 43.707 43.54l0.391 0.558c26.611 36.033 44.885 79.773 51.126 127.302l0.151 1.404c1.946 2.002 3.51 4.389 4.564 7.033l0.051 0.145c9.75 23.717 15.411 51.248 15.411 80.102 0 1.223-0.010 2.444-0.030 3.663l0.002-0.183c0.074 2.030 0.117 4.416 0.117 6.811 0 106.933-84.579 194.111-190.488 198.285l-0.379 0.012c-0.076 0-0.166 0-0.256 0-28.504 0-55.415-6.82-79.19-18.919l0.993 0.459c-9.964-0.735-19.218-2.558-28.034-5.363l0.857 0.235c-87.684-27.69-137.422-130.243-110.758-236.387 3.33-12.389 6.832-22.627 10.909-32.567l-0.654 1.801 6.153-7.179c6.917-69.386 41.015-129.684 91.339-170.91l0.446-0.355c-6.623-53.7-51.962-94.865-106.916-94.865-0.269 0-0.538 0.001-0.807 0.003h0.041c-76.486-1.438-137.939-63.78-137.939-140.475 0-0.369 0.001-0.737 0.004-1.105v0.056-150.754c0-14.16 11.479-25.638 25.638-25.638v0h451.237c14.16 0 25.638 11.479 25.638 25.638s-11.479 25.638-25.638 25.638v0h-425.598v125.628c-0.001 0.152-0.001 0.332-0.001 0.513 0 49.276 39.946 89.222 89.222 89.222 0 0 0.001 0 0.001 0v0zM262.025 887.187c6.152 1.799 13.325 3.077 20.712 3.573l0.312 0.017c0.12-0.003 0.262-0.004 0.404-0.004 3.855 0 7.441 1.15 10.435 3.125l-0.071-0.044c17.364 9.366 38.003 14.87 59.928 14.87 0.023 0 0.046 0 0.069 0h-0.004c77.623-4.193 138.978-68.157 138.978-146.451 0-0.792-0.006-1.582-0.019-2.371l0.001 0.119c-15.086 11.456-34.16 18.38-54.848 18.46h-133.339c-6.961 0-13.382 2.312-18.537 6.209l0.077-0.056c-4.57 3.161-8.106 7.522-10.187 12.631l-0.068 0.189c-4.379 10.964-14.909 18.569-27.215 18.569-0.889 0-1.769-0.040-2.638-0.117l0.112 0.008c-13.055-0.708-23.82-9.735-27.128-21.841l-0.049-0.209c-6.932-26.281-18.978-49.138-35.098-68.481l0.229 0.283c-3.168 10.957-4.99 23.543-4.99 36.554 0 56.013 33.764 104.14 82.050 125.139l0.881 0.341zM202.031 671.311c22.578 19.798 40.889 43.85 53.786 70.975l0.567 1.326c13.124-10.236 29.85-16.412 48.018-16.412 0.244 0 0.488 0.001 0.732 0.003h133.283c15.672-0.573 29.021-9.965 35.277-23.339l0.104-0.249c0.011-0.858 0.017-1.87 0.017-2.885 0-51.246-15.927-98.772-43.101-137.898l0.524 0.797c-20.927-30.804-55.048-51.295-94.054-53.316l-0.295-0.012c-36.519 1.484-68.472 19.802-88.48 47.356l-0.23 0.332c-24.663 31.289-41.259 70.004-46.055 112.298l-0.094 1.024zM336.889 459.537c15.953 0.143 31.285 2.569 45.759 6.966l-1.148-0.3c7.811-34.46 26.007-63.833 51.073-85.461l0.204-0.172-97.426-141.012-95.375 141.012c25.158 21.886 43.321 51.221 51.066 84.552l0.211 1.080c13.657-4.209 29.358-6.644 45.625-6.666h0.011zM1090.147 252.891h-2.564c-0.056 0-0.123 0-0.189 0-55.418 0-101.104 41.665-107.443 95.379l-0.049 0.509c32.962 25.021 58.387 58.368 73.324 96.94l0.515 1.512c2.713-8.015 8.906-14.209 16.734-16.866l0.188-0.055h7.692c8.070 0.117 15.241 3.871 19.96 9.694l0.038 0.049c32.723 44.056 52.385 99.513 52.385 159.562 0 64.759-22.866 124.177-60.965 170.621l0.376-0.473c-33.974 40.583-84.401 66.422-140.884 67.171l-0.128 0.001h-11.281c-22.951 11.094-49.911 17.577-78.386 17.577-2.548 0-5.085-0.052-7.608-0.155l0.362 0.012c-65.586-3.275-122.859-36.206-159.061-85.559l-0.41-0.586c-36.412-48.725-58.301-110.151-58.301-176.69 0-5.126 0.13-10.221 0.387-15.283l-0.029 0.71c-0.271-4.977-0.425-10.803-0.425-16.665s0.154-11.688 0.459-17.473l-0.034 0.808c4.357-32.253 13.176-61.474 25.902-88.492l-0.777 1.834c4.035-8.804 12.771-14.81 22.91-14.81 3.977 0 7.738 0.924 11.080 2.569l-0.148-0.066c4.539 2.148 8.214 5.493 10.706 9.632l0.062 0.111 7.692 11.794c11.481-34.882 28.994-64.967 51.52-90.528l-0.243 0.281c8.827-10.305 18.767-19.267 29.739-26.841l0.515-0.336c-6.388-54.223-52.074-95.888-107.492-95.888-0.067 0-0.133 0-0.2 0h0.010c-75.357-2.838-135.371-64.613-135.371-140.405 0-0.033 0-0.066 0-0.099v0.005-150.754c0-14.16 11.479-25.638 25.638-25.638v0h623.015c14.16 0 25.638 11.479 25.638 25.638v0 150.754c0 0.034 0 0.073 0 0.113 0 75.612-59.728 137.273-134.577 140.376l-0.281 0.009zM694.802 520.557c-2.5 8.182-4.652 18.069-6.038 28.2l-0.115 1.028c-0.253 4.214-0.397 9.141-0.397 14.101s0.144 9.887 0.428 14.776l-0.031-0.675c-0.159 3.323-0.25 7.217-0.25 11.132 0 55.453 18.187 106.658 48.921 147.976l-0.471-0.662c27.422 37.967 70.484 63.174 119.547 66.126l0.441 0.021c0.953 0.023 2.076 0.036 3.201 0.036 23.527 0 45.723-5.7 65.282-15.793l-0.798 0.374c1.847-0.486 3.968-0.765 6.153-0.765s4.306 0.279 6.328 0.804l-0.175-0.038h13.845c41.389-1.779 77.895-21.27 102.36-51.034l0.194-0.243c29.096-35.214 47.112-80.525 48.196-130.009l0.004-0.235c0.045-1.691 0.070-3.682 0.070-5.678 0-25.469-4.154-49.967-11.821-72.854l0.47 1.617c-2.564 6.666-5.128 12.819-8.204 18.972-24.030 51.317-64.942 91.4-115.448 113.769l-1.463 0.579c-2.935 1.268-6.352 2.006-9.941 2.006-10.823 0-20.080-6.706-23.841-16.19l-0.061-0.173c-3.365-10.19-7.533-19.009-12.616-27.2l0.31 0.536c-13.538-22.639-37.923-37.562-65.793-37.562-1.568 0-3.124 0.047-4.668 0.14l0.212-0.010h-13.845c-23.727-0.555-46.206-5.209-66.98-13.279l1.346 0.46c-28.942-12.343-53.632-29.308-74.331-50.231l-0.020-0.021zM757.36 506.712c8.822 5.825 18.947 11.16 29.595 15.476l1.172 0.42c14.274 5.37 30.768 8.709 47.972 9.224l0.228 0.005h10.255c2.191-0.136 4.752-0.214 7.331-0.214 46.446 0 87.005 25.205 108.745 62.683l0.322 0.602c1.381 1.782 2.736 3.791 3.959 5.888l0.143 0.265c23.778-14.722 43.363-33.98 58.022-56.712l0.433-0.718v-2.564c-2.722-47.667-20.049-90.824-47.531-125.583l0.356 0.467c-20.335-27.773-52.231-46.043-88.459-47.679l-0.25-0.009c-61.020 0-114.348 57.943-131.782 138.448zM888.629 318.013c0.242-0.001 0.528-0.002 0.814-0.002 15.636 0 30.702 2.438 44.839 6.956l-1.042-0.288c9.676-44.423 37.493-80.975 75.118-102.155l0.771-0.399c-15.21-53.178-63.386-91.448-120.501-91.448s-105.29 38.27-120.284 90.565l-0.217 0.883c38.215 21.923 66.036 58.295 76.19 101.48l0.213 1.073c12.997-4.506 27.976-7.13 43.562-7.179h0.023zM1174.754-14.261h-572.25v126.654c-0.001 0.152-0.001 0.332-0.001 0.513 0 49.276 39.946 89.222 89.222 89.222 0 0 0.001 0 0.001 0v0c3.841-0.361 8.306-0.567 12.819-0.567s8.978 0.206 13.386 0.609l-0.567-0.042c22.726-72.641 89.408-124.437 168.188-124.437s145.463 51.796 167.851 123.191l0.337 1.246c3.841-0.361 8.306-0.567 12.819-0.567s8.978 0.206 13.386 0.609l-0.567-0.042c0 0 0.001 0 0.001 0 49.276 0 89.222-39.946 89.222-89.222 0-0.18-0.001-0.36-0.002-0.541v0.028z" />
<glyph unicode="&#xe918;" glyph-name="print-02" horiz-adv-x="990" d="M990.261 246.16v373.494c-0.336 49.761-40.752 89.97-90.56 89.97-0.001 0-0.001 0-0.002 0h-97.665v191.186c0 32.69-26.501 59.191-59.191 59.191v0h-495.427c-32.69 0-59.191-26.501-59.191-59.191v0-191.778h-97.665c-0.353 0.005-0.769 0.008-1.186 0.008-49.157 0-89.045-39.684-89.376-88.762v-373.526c-0.001-0.176-0.002-0.385-0.002-0.594 0-49.689 40.281-89.97 89.97-89.97 0.209 0 0.417 0.001 0.626 0.002h97.633v-159.223c0-32.69 26.501-59.191 59.191-59.191v0h494.243c32.69 0 59.191 26.501 59.191 59.191v0 158.631h97.665c49.761 0.336 89.97 40.752 89.97 90.56 0 0.001 0 0.001 0 0.002v0zM236.763 900.809c0.026 4.557 3.726 8.241 8.287 8.241 1.064 0 2.081-0.201 3.016-0.566l-0.056 0.019h494.243c0.006 0 0.013 0 0.020 0 4.695 0 8.539-3.645 8.857-8.259l0.002-0.028v-191.186h-514.368zM748.763-3.034c0-4.904-3.975-8.879-8.879-8.879v0h-491.875c-0.711-0.205-1.528-0.323-2.372-0.323-4.809 0-8.725 3.823-8.874 8.596v410.798h512v-410.784zM774.215 458.654h-560.536c-14.057 0-25.452-11.395-25.452-25.452v0-226.109h-97.665c-21.769 0.328-39.33 17.889-39.657 39.627v372.933c0.333 21.646 17.959 39.066 39.653 39.066 0.002 0 0.003 0 0.005 0h809.137c21.575 0 39.066-17.49 39.066-39.066v0-373.494c0-0.001 0-0.003 0-0.004 0-21.694-17.42-39.32-39.035-39.653h-97.696v226.109c0.004 0.176 0.007 0.384 0.007 0.592 0 13.73-11.13 24.86-24.86 24.86-0.002 0-0.005 0-0.007 0v0zM132.587 577.036c-4.673-4.706-7.562-11.19-7.562-18.349s2.888-13.643 7.563-18.351l-0.002 0.002c4.611-4.639 10.997-7.511 18.053-7.511s13.442 2.871 18.052 7.51l0.001 0.001c4.82 4.638 7.814 11.144 7.814 18.349s-2.994 13.711-7.805 18.341l-0.008 0.008c-4.822 4.41-11.27 7.112-18.349 7.112s-13.528-2.702-18.37-7.13l0.021 0.019zM640.444 223.075h-290.627c-12.601-1.969-22.129-12.746-22.129-25.748s9.528-23.779 21.982-25.729l0.147-0.019h290.035c14.127 0.331 25.452 11.862 25.452 26.037 0 0.002 0 0.005 0 0.007v0c0.004 0.176 0.007 0.384 0.007 0.592 0 13.73-11.13 24.86-24.86 24.86-0.002 0-0.005 0-0.007 0v0zM640.444 107.061h-290.627c-14.057 0-25.452-11.395-25.452-25.452v0c0-0.002 0-0.004 0-0.007 0-14.176 11.325-25.706 25.421-26.037l0.031-0.001h290.035c14.127 0.331 25.452 11.862 25.452 26.037 0 0.002 0 0.005 0 0.007v0c0.004 0.176 0.007 0.384 0.007 0.592 0 13.73-11.13 24.86-24.86 24.86-0.002 0-0.005 0-0.007 0v0zM640.444 339.089h-290.627c-14.057 0-25.452-11.395-25.452-25.452s11.395-25.452 25.452-25.452h290.035c14.057 0 25.452 11.395 25.452 25.452v0c0.004 0.176 0.007 0.384 0.007 0.592 0 13.73-11.13 24.86-24.86 24.86-0.002 0-0.005 0-0.007 0v0z" />
<glyph unicode="&#xe919;" glyph-name="calendar-check-o" horiz-adv-x="951" d="M744.571 400l-292.571-292.571c-7.429-6.857-18.857-6.857-26.286 0l-164.571 164.571c-6.857 7.429-6.857 18.857 0 25.714l26.286 26.286c6.857 6.857 18.286 6.857 25.714 0l125.714-125.714 253.714 253.714c7.429 6.857 18.857 6.857 25.714 0l26.286-26.286c6.857-6.857 6.857-18.286 0-25.714zM73.143 0h804.571v585.143h-804.571v-585.143zM292.571 694.857v164.571c0 10.286-8 18.286-18.286 18.286h-36.571c-10.286 0-18.286-8-18.286-18.286v-164.571c0-10.286 8-18.286 18.286-18.286h36.571c10.286 0 18.286 8 18.286 18.286zM731.429 694.857v164.571c0 10.286-8 18.286-18.286 18.286h-36.571c-10.286 0-18.286-8-18.286-18.286v-164.571c0-10.286 8-18.286 18.286-18.286h36.571c10.286 0 18.286 8 18.286 18.286zM950.857 731.428v-731.429c0-40-33.143-73.143-73.143-73.143h-804.571c-40 0-73.143 33.143-73.143 73.143v731.429c0 40 33.143 73.143 73.143 73.143h73.143v54.857c0 50.286 41.143 91.429 91.429 91.429h36.571c50.286 0 91.429-41.143 91.429-91.429v-54.857h219.429v54.857c0 50.286 41.143 91.429 91.429 91.429h36.571c50.286 0 91.429-41.143 91.429-91.429v-54.857h73.143c40 0 73.143-33.143 73.143-73.143z" />
<glyph unicode="&#xe91b;" glyph-name="handshake-o" horiz-adv-x="1317" d="M109.714 292.571c48 0 48 73.143 0 73.143s-48-73.143 0-73.143zM951.429 325.714c-45.143 58.857-89.143 118.857-140.571 172.571l-71.429-80c-62.857-71.429-175.429-69.714-236.571 3.429-43.429 52.571-43.429 128 1.143 180l101.143 117.714c-35.429 18.286-78.286 12-116.571 12-33.714 0-66.286-13.714-90.286-37.714l-90.286-90.286h-88.571v-310.857c25.143 0 48 3.429 68-16l169.714-166.857c34.857-33.714 80-63.429 129.714-63.429 25.714 0 53.143 8.571 71.429 26.857 42.857-14.857 92.571 9.143 105.714 53.143 27.429-2.286 52.571 6.286 72.571 25.143 13.143 12 30.286 36 28.571 54.857 5.143-5.143 17.714-5.714 24.571-5.714 68 0 103.429 71.429 61.714 125.143zM1042.286 292.571h54.857v292.571h-53.143l-89.714 102.857c-24 27.429-60 43.429-96.571 43.429h-95.429c-32 0-62.857-14.286-83.429-38.286l-119.429-138.857c-21.143-25.143-21.143-60.571-0.571-85.714 32.571-38.857 92.571-39.429 126.286-1.714l110.286 124.571c26.286 29.143 74.286 1.714 62.286-35.429 21.714-25.143 45.143-49.714 66.286-74.857 28.571-35.429 56-72.571 84-108.571 17.714-22.857 30.857-50.286 34.286-80zM1206.857 292.571c48 0 48 73.143 0 73.143s-48-73.143 0-73.143zM1316.571 621.714v-365.714c0-20-16.571-36.571-36.571-36.571h-248c-20.571-49.714-65.714-82.857-118.286-90.286-24.571-36-62.286-63.429-104.571-72.571-31.429-40-82.286-64-133.143-60.571-94.286-53.143-200.571-6.857-270.857 62.286l-164 161.143h-204.571c-20 0-36.571 16.571-36.571 36.571v384c0 20 16.571 36.571 36.571 36.571h240.571c66.286 66.286 112 128 211.429 128h66.857c37.143 0 73.143-11.429 103.429-32 30.286 20.571 66.286 32 103.429 32h95.429c108.571 0 153.714-70.857 219.429-146.286h202.857c20 0 36.571-16.571 36.571-36.571z" />
<glyph unicode="&#xe94e;" glyph-name="clock" d="M658.744 210.744l-210.744 210.746v282.51h128v-229.49l173.256-173.254zM512 960c-282.77 0-512-229.23-512-512s229.23-512 512-512 512 229.23 512 512-229.23 512-512 512zM512 64c-212.078 0-384 171.922-384 384s171.922 384 384 384c212.078 0 384-171.922 384-384s-171.922-384-384-384z" />
<glyph unicode="&#xe9ce;" glyph-name="eye" d="M512 768c-223.318 0-416.882-130.042-512-320 95.118-189.958 288.682-320 512-320 223.312 0 416.876 130.042 512 320-95.116 189.958-288.688 320-512 320zM764.45 598.296c60.162-38.374 111.142-89.774 149.434-150.296-38.292-60.522-89.274-111.922-149.436-150.296-75.594-48.218-162.89-73.704-252.448-73.704-89.56 0-176.858 25.486-252.452 73.704-60.158 38.372-111.138 89.772-149.432 150.296 38.292 60.524 89.274 111.924 149.434 150.296 3.918 2.5 7.876 4.922 11.86 7.3-9.96-27.328-15.41-56.822-15.41-87.596 0-141.382 114.616-256 256-256 141.382 0 256 114.618 256 256 0 30.774-5.452 60.268-15.408 87.598 3.978-2.378 7.938-4.802 11.858-7.302v0zM512 544c0-53.020-42.98-96-96-96s-96 42.98-96 96 42.98 96 96 96 96-42.982 96-96z" />
</font>
</defs>
</svg>
