<svg id="Capa_1" data-name="Capa 1" xmlns="http://www.w3.org/2000/svg" viewBox="0 0 21.2 21.28"><defs><style>.cls-1{fill:#fff;}</style></defs><title>file</title><g id="Group_3949-2" data-name="Group 3949-2"><path id="Path_2229" data-name="Path 2229" class="cls-1" d="M19.37,19.46v1.82H18.09V19.46H16.25V18.17h1.84V16.33h1.28v1.84H21.2v1.29Z"/><path id="Path_2230" data-name="Path 2230" class="cls-1" d="M15,11.33a8.85,8.85,0,0,0-3.34-2.1A5.06,5.06,0,1,0,4.6,8a5.22,5.22,0,0,0,1.31,1.3A8.8,8.8,0,0,0,0,17.56H1.38a7.41,7.41,0,0,1,14.82,0h1.37A8.73,8.73,0,0,0,15,11.33ZM5.07,5.06a3.71,3.71,0,1,1,3.72,3.7h0A3.7,3.7,0,0,1,5.07,5.06Z"/></g></svg>