<svg id="Capa_1" data-name="Capa 1" xmlns="http://www.w3.org/2000/svg" viewBox="0 0 30 30"><defs><style>.cls-1{fill:#bfbfbf;}</style></defs><title>icon</title><g id="Group_3631" data-name="Group 3631"><path id="Path_2080" data-name="Path 2080" class="cls-1" d="M28.55,7.74A1.45,1.45,0,0,0,30,6.29V1.45A1.45,1.45,0,0,0,28.55,0H14a1.45,1.45,0,0,0-1.45,1.45V6.29A1.45,1.45,0,0,0,14,7.74h.49v1h-2.9V2.22L10.16,3.67l-1-1-1,1-1-1-1,1-1-1-1,1L2.9,2.22V8.71H2.42A2.42,2.42,0,0,0,0,11.13V27.58A2.42,2.42,0,0,0,2.42,30H27.58A2.42,2.42,0,0,0,30,27.58h0V11.13a2.42,2.42,0,0,0-1.93-2.37v-1Zm-15-1.45V1.45A.47.47,0,0,1,14,1H28.55a.47.47,0,0,1,.48.48V6.29a.47.47,0,0,1-.48.48H14A.47.47,0,0,1,13.55,6.29ZM4.36,5l1-1,1,1,1-1,1,1,1-1,1,1,.49-.49v7.06H3.87V4.55ZM2.42,9.68H2.9v1.93h-1v1H12.58v-1h-1V9.68h3.87v3.87H3.87v1H15.48v7.74H1V14.52H2.9v-1H1V11.13A1.45,1.45,0,0,1,2.42,9.68ZM29,11.13V22.26H27.1v1H29v4.35A1.45,1.45,0,0,1,27.58,29H2.42A1.45,1.45,0,0,1,1,27.58V23.23H26.13v-1H16.45V9.68H27.58A1.45,1.45,0,0,1,29,11.13ZM27.1,8.71H15.48v-1H27.1Z"/><path id="Path_2081" data-name="Path 2081" class="cls-1" d="M9.19,28.07H20.81V24.19H9.19Zm1-2.9h9.68v1.92H10.16Z"/><path id="Path_2082" data-name="Path 2082" class="cls-1" d="M17.42,13.54h2.9V10.65h-2.9Zm1-1.93h1v1h-1Z"/><path id="Path_2083" data-name="Path 2083" class="cls-1" d="M21.29,13.54h2.9V10.65h-2.9Zm1-1.93h1v1h-1Z"/><path id="Path_2084" data-name="Path 2084" class="cls-1" d="M25.16,13.54h2.9V10.65h-2.9Zm1-1.93h1v1h-1Z"/><path id="Path_2085" data-name="Path 2085" class="cls-1" d="M17.42,17.42h2.9v-2.9h-2.9Zm1-1.94h1v1h-1Z"/><path id="Path_2086" data-name="Path 2086" class="cls-1" d="M21.29,17.42h2.9v-2.9h-2.9Zm1-1.94h1v1h-1Z"/><path id="Path_2087" data-name="Path 2087" class="cls-1" d="M25.16,17.42h2.9v-2.9h-2.9Zm1-1.94h1v1h-1Z"/><path id="Path_2088" data-name="Path 2088" class="cls-1" d="M17.42,21.29h2.9v-2.9h-2.9Zm1-1.94h1v1h-1Z"/><path id="Path_2089" data-name="Path 2089" class="cls-1" d="M21.29,21.29h2.9v-2.9h-2.9Zm1-1.94h1v1h-1Z"/><path id="Path_2090" data-name="Path 2090" class="cls-1" d="M25.16,21.29h2.9v-2.9h-2.9Zm1-1.94h1v1h-1Z"/><path id="Path_2091" data-name="Path 2091" class="cls-1" d="M1.93,21.29H14.52V15.48H1.93Zm1-4.84H13.55v3.87H2.9Z"/><rect id="Rectangle_1987" data-name="Rectangle 1987" class="cls-1" x="4.84" y="7.74" width="4.84" height="0.97"/><rect id="Rectangle_1988" data-name="Rectangle 1988" class="cls-1" x="4.84" y="9.68" width="2.42" height="0.97"/></g></svg>