<svg id="Capa_1" data-name="Capa 1" xmlns="http://www.w3.org/2000/svg" viewBox="0 0 29.2 29.2"><defs><style>.cls-1{fill:#fff;}</style></defs><title>icon</title><g id="Group_3796" data-name="Group 3796"><path id="Path_2095" data-name="Path 2095" class="cls-1" d="M14.6,7a7.57,7.57,0,1,0,7.57,7.57h0A7.56,7.56,0,0,0,14.62,7Zm0,14.06a6.49,6.49,0,1,1,6.49-6.49A6.5,6.5,0,0,1,14.6,21.09Z"/><path id="Path_2096" data-name="Path 2096" class="cls-1" d="M27.71,11.36H26.63a12.46,12.46,0,0,0-1.22-3l.75-.74a1.54,1.54,0,0,0,.4-1.08,1.53,1.53,0,0,0-.4-1.08L23.73,3a1.56,1.56,0,0,0-2.1,0l-.75.75a11.14,11.14,0,0,0-3-1.22V1.49A1.51,1.51,0,0,0,16.42,0H12.84a1.49,1.49,0,0,0-1.48,1.49V2.57a12.06,12.06,0,0,0-3,1.22L7.64,3a1.56,1.56,0,0,0-2.1,0L3,5.47A1.64,1.64,0,0,0,3,7.64l.74.74a11.84,11.84,0,0,0-1.22,3H1.49A1.51,1.51,0,0,0,0,12.84v3.52a1.49,1.49,0,0,0,1.49,1.48H2.57a12.46,12.46,0,0,0,1.22,3L3,21.56a1.66,1.66,0,0,0,0,2.17l2.44,2.43a1.56,1.56,0,0,0,2.1,0l.74-.74a11.45,11.45,0,0,0,3,1.21v1.08a1.5,1.5,0,0,0,1.48,1.49h3.52a1.51,1.51,0,0,0,1.49-1.49V26.63a12.23,12.23,0,0,0,3-1.22l.74.75a1.56,1.56,0,0,0,2.1,0L26,23.73a1.6,1.6,0,0,0,.47-1.09A1.36,1.36,0,0,0,26,21.56l-.75-.74a11.07,11.07,0,0,0,1.22-3h1.22a1.5,1.5,0,0,0,1.48-1.48V12.84A1.49,1.49,0,0,0,27.71,11.36Zm.41,5a.44.44,0,0,1-.41.4h-2l-.07.41a10.91,10.91,0,0,1-1.41,3.44L24,21l1.35,1.35a.5.5,0,0,1,0,.61l-2.44,2.44a.51.51,0,0,1-.6,0L21,24l-.33.2a10.85,10.85,0,0,1-3.45,1.42l-.41.07v2a.43.43,0,0,1-.4.4H12.84a.43.43,0,0,1-.4-.4v-2L12,25.69a10,10,0,0,1-3.38-1.42l-.34-.2L7,25.42a.53.53,0,0,1-.61,0L3.92,23a.5.5,0,0,1,0-.61L5.27,21l-.2-.34a10.8,10.8,0,0,1-1.42-3.44l-.07-.41H1.48a.42.42,0,0,1-.4-.41V12.84a.42.42,0,0,1,.4-.4h2L3.51,12A10,10,0,0,1,4.93,8.65l.2-.34L3.79,7a.5.5,0,0,1,0-.61L6.22,3.92a.5.5,0,0,1,.61,0L8.18,5.27l.34-.2A11.45,11.45,0,0,1,11.9,3.65l.41-.07V1.48a.41.41,0,0,1,.4-.4h3.52a.42.42,0,0,1,.4.4v2l.41.07a10.85,10.85,0,0,1,3.45,1.42L21,5.2l1.35-1.35a.5.5,0,0,1,.61,0l2.43,2.43a.5.5,0,0,1,0,.61L24,8.25l.2.33A11.68,11.68,0,0,1,25.62,12l.07.41h2a.43.43,0,0,1,.4.41Z"/><path id="Path_2097" data-name="Path 2097" class="cls-1" d="M14.6,9.19A5.41,5.41,0,1,0,20,14.6h0A5.43,5.43,0,0,0,14.6,9.19Zm0,9.74a4.33,4.33,0,1,1,4.33-4.33A4.33,4.33,0,0,1,14.6,18.93Z"/></g></svg>