<svg id="Capa_1" data-name="Capa 1" xmlns="http://www.w3.org/2000/svg" xmlns:xlink="http://www.w3.org/1999/xlink" viewBox="0 0 27 30.44"><defs><style>.cls-1{fill:none;}.cls-2{clip-path:url(#clip-path);}.cls-3{fill:#bfbfbf;}</style><clipPath id="clip-path"><rect class="cls-1" y="0.13" width="27" height="30.31"/></clipPath></defs><title>icon</title><g id="Group_3634" data-name="Group 3634"><g id="Group_3633" data-name="Group 3633"><g class="cls-2"><g id="Group_3632" data-name="Group 3632"><path id="Path_2092" data-name="Path 2092" class="cls-3" d="M25.68,2.62h-9.6A2.56,2.56,0,1,0,11,2.51a.21.21,0,0,0,0,.11H1.36A1.27,1.27,0,0,0,.07,3.88h0V29.16a1.29,1.29,0,0,0,1.27,1.28H25.68A1.28,1.28,0,0,0,27,29.16h0V3.89a1.29,1.29,0,0,0-1.27-1.28h0ZM13.52,1.33A1.27,1.27,0,0,1,14.79,2.6H12.23A1.29,1.29,0,0,1,13.52,1.33ZM17,3.89V5.17H10.08V3.89Zm8.73,25.27H1.35V3.89h7V5.82A.64.64,0,0,0,9,6.46h9a.64.64,0,0,0,.64-.64V3.89h7V29.16Z"/></g></g></g><rect id="Rectangle_1990" data-name="Rectangle 1990" class="cls-3" x="11.6" y="15.42" width="12.81" height="1.28"/><rect id="Rectangle_1991" data-name="Rectangle 1991" class="cls-3" x="11.6" y="12.86" width="12.81" height="1.28"/><rect id="Rectangle_1992" data-name="Rectangle 1992" class="cls-3" x="11.6" y="24.39" width="12.81" height="1.28"/><rect id="Rectangle_1993" data-name="Rectangle 1993" class="cls-3" x="11.6" y="21.83" width="12.81" height="1.28"/><path id="Path_2093" data-name="Path 2093" class="cls-3" d="M9,10.72a.65.65,0,0,0-.6-.42H3.26a.64.64,0,0,0-.63.64v5.12a.62.62,0,0,0,.63.64H8.39A.64.64,0,0,0,9,16.06H9V12.48l2.37-2.37-.9-.9Zm-1.24,4.7H3.9V11.58H7.75V12L6.47,13.23l-.83-.82-.9.9L6,14.59a.65.65,0,0,0,.9,0l.83-.83Z"/><path id="Path_2094" data-name="Path 2094" class="cls-3" d="M9,19.69a.64.64,0,0,0-.6-.42H3.26a.63.63,0,0,0-.63.64h0V25a.63.63,0,0,0,.63.64H8.39A.64.64,0,0,0,9,25H9V21.45l2.37-2.38-.9-.9Zm-1.24,4.7H3.9V20.54H7.75v.38L6.47,22.2l-.83-.83-.9.9L6,23.55a.63.63,0,0,0,.9,0l.83-.83Z"/></g></svg>