<svg id="Capa_1" data-name="Capa 1" xmlns="http://www.w3.org/2000/svg" viewBox="0 0 37.43 41"><defs><style>.cls-1{fill:#d3c18e;}</style></defs><title>icon</title><path id="Path_2213" data-name="Path 2213" class="cls-1" d="M34.42,33.33a15.28,15.28,0,0,1-2.57-8.46V16.3a13.14,13.14,0,0,0-11.6-13V0H17.09V3.26A13.25,13.25,0,0,0,5.57,16.42v8.45A15.11,15.11,0,0,1,3,33.32L0,37.85H14.26a4.72,4.72,0,0,0,6,2.88,4.77,4.77,0,0,0,2.88-2.88H37.43ZM5.89,34.69a18.35,18.35,0,0,0,2.84-9.82V16.42a10.06,10.06,0,0,1,10-10.11h0a10,10,0,0,1,10,10v8.59a18.35,18.35,0,0,0,2.84,9.82Z"/></svg>