<svg id="Capa_1" data-name="Capa 1" xmlns="http://www.w3.org/2000/svg" viewBox="0 0 36.1 30.17"><defs><style>.cls-1{fill:#bfbfbf;}</style></defs><title>icon</title><g id="Group_3637" data-name="Group 3637"><path id="Path_2100" data-name="Path 2100" class="cls-1" d="M4.14,18.15h.08a5,5,0,0,0,1.54-.31L9.32,23a.76.76,0,0,0,1.24,0l3.57-5.14a4.75,4.75,0,0,0,1.54.31h.08a2.64,2.64,0,0,1,2.15,1.12.77.77,0,0,0,.61.31.65.65,0,0,0,.43-.14.76.76,0,0,0,.19-1.05,4.17,4.17,0,0,0-3.23-1.75h-.09a3.2,3.2,0,0,1-3.16-2.82,5.89,5.89,0,0,0,1.29-1.3,8.15,8.15,0,0,0,1.47-3.79.77.77,0,0,0,.14-.21A6.25,6.25,0,0,0,16,6a5.84,5.84,0,0,0-5.61-6A5.29,5.29,0,0,0,8.12.54a3.64,3.64,0,0,0-.8.15c-2.6.75-4.05,3.88-3.27,7a6.1,6.1,0,0,0,.31.91.8.8,0,0,0,.13.21,7.37,7.37,0,0,0,2.75,5,3.19,3.19,0,0,1-3.17,2.82H4a4.14,4.14,0,0,0-4,4.13v4.45A.76.76,0,0,0,.75,26h13.3a.77.77,0,0,0,.73-.78.76.76,0,0,0-.73-.73H1.5v-3.7A2.64,2.64,0,0,1,4.14,18.15Zm3.58-16A2.59,2.59,0,0,1,8.34,2,.9.9,0,0,0,8.66,2a3.7,3.7,0,0,1,1.76-.44,4.33,4.33,0,0,1,4.1,4.39,2.8,2.8,0,0,0-1.62-.55H9a.9.9,0,0,1-.53-.17.83.83,0,0,1-.3-.39.91.91,0,0,0-.88-.55.87.87,0,0,0-.8.66,5.07,5.07,0,0,1-1,2C5,4.72,6,2.64,7.72,2.14ZM6,8.51A6.66,6.66,0,0,0,7.52,6.38h0A2.39,2.39,0,0,0,9,6.86H12.9A1.17,1.17,0,0,1,14,7.54a6.92,6.92,0,0,1-1.25,4.11,3.52,3.52,0,0,1-2.79,1.59,3.38,3.38,0,0,1-2.62-1.4A6.53,6.53,0,0,1,6,8.51Zm4,6.23a4.41,4.41,0,0,0,1.3-.2,4.75,4.75,0,0,0,1.57,2.53L9.93,21.23,7.05,17.07a4.71,4.71,0,0,0,1.58-2.53A4.41,4.41,0,0,0,9.93,14.74Z"/><path id="Path_2101" data-name="Path 2101" class="cls-1" d="M32.11,20.83H32A3.19,3.19,0,0,1,28.87,18a6.6,6.6,0,0,0,2.18-2.9.74.74,0,0,0,.49.5.62.62,0,0,0,.23,0,.75.75,0,0,0,.59-.29,7.93,7.93,0,0,0-.24-9.7,5.55,5.55,0,0,0-4.16-2h-.32a5.69,5.69,0,0,0-2.54-.51,6.12,6.12,0,0,0-4.68,2.54,8.81,8.81,0,0,0-1.72,5.63,7.58,7.58,0,0,0,.09,1,8.76,8.76,0,0,0,.73,2.55.73.73,0,0,0,.64.43.75.75,0,0,0,.69-.36l.22-.34a7.47,7.47,0,0,0,1.5,2.66,5.26,5.26,0,0,0,.9.8,3.19,3.19,0,0,1-3.17,2.82h-.07a4.13,4.13,0,0,0-4,4.13v4.45a.74.74,0,0,0,.75.75H35.35a.75.75,0,0,0,.75-.75h0V25A4.13,4.13,0,0,0,32.11,20.83ZM20.46,13a6.68,6.68,0,0,1-.18-.89,7.53,7.53,0,0,1-.07-.83,7.31,7.31,0,0,1,1.41-4.67,4.67,4.67,0,0,1,3.53-1.95,4.31,4.31,0,0,1,2,.45.78.78,0,0,0,.36.08l.41,0a4,4,0,0,1,3,1.51,6.23,6.23,0,0,1,1.42,3.83,6.25,6.25,0,0,1-.33,2.27c-.07-.19-.15-.37-.24-.56A6.69,6.69,0,0,0,28.38,8.8a.86.86,0,0,0-.59,0,.78.78,0,0,0-.41.43A5.63,5.63,0,0,1,27,10,2.25,2.25,0,0,1,25,11.11h-.4a6,6,0,0,0-1.89.37A6.8,6.8,0,0,0,20.46,13Zm1.85.41a4.62,4.62,0,0,1,.91-.47,4.25,4.25,0,0,1,1.41-.27h.3a3.73,3.73,0,0,0,3.43-1.87,1,1,0,0,0,.12-.23,5.33,5.33,0,0,1,1.72,1.75.15.15,0,0,0,0,.07A6.59,6.59,0,0,1,28.8,16a3.42,3.42,0,0,1-2.62,1.4c-1.78,0-3.35-1.69-3.87-4.06Zm3.86,5.56a4.12,4.12,0,0,0,1.31-.2,4.68,4.68,0,0,0,2.24,3,3.68,3.68,0,0,1-7.09,0,4.68,4.68,0,0,0,2.24-3,4.1,4.1,0,0,0,1.3.2Zm8.43,9.75H17.75V25a2.63,2.63,0,0,1,2.63-2.63h.08a3.92,3.92,0,0,0,.76-.08,5.18,5.18,0,0,0,9.91,0,4,4,0,0,0,.77.08H32A2.63,2.63,0,0,1,34.6,25h0Z"/></g></svg>