<svg id="Capa_1" data-name="Capa 1" xmlns="http://www.w3.org/2000/svg" viewBox="0 0 32 32.01"><defs><style>.cls-1{fill:#bfbfbf;}</style></defs><title>icon</title><g id="Group_3630" data-name="Group 3630"><path id="Path_2078" data-name="Path 2078" class="cls-1" d="M28.75,24.69s0,0,0,0a2.58,2.58,0,0,0-3.42-1.34l-.1,0-4.35,1.21a2.87,2.87,0,0,0-1.77-1.75h0L14.29,21.2a4.94,4.94,0,0,0-4-1.83,5,5,0,0,0-3.9,2.34H.63a.63.63,0,0,0-.63.63v7.88a.64.64,0,0,0,.63.63H4.34A.64.64,0,0,0,5,30.22v-.54H6.71a.63.63,0,0,0,.63-.62v-.18a4.3,4.3,0,0,1,2.28.82,40.19,40.19,0,0,0,3.76,1.91s0,0,0,0a5.52,5.52,0,0,0,2,.38,4.91,4.91,0,0,0,2.07-.45l9.63-3.44.05,0A2.68,2.68,0,0,0,28.75,24.69Zm-25,4.9H1.25V23H3.72Zm2.36-1.16H5V23H6.09v5.47ZM26.66,27,17,30.39H17a4,4,0,0,1-3.11.05,36.39,36.39,0,0,1-3.63-1.85,5.64,5.64,0,0,0-2.91-1v-5a3.88,3.88,0,0,1,3-2,3.61,3.61,0,0,1,3.07,1.44.62.62,0,0,0,.33.26l5,1.69a1.4,1.4,0,0,1,1,1.65,1.19,1.19,0,0,1-.59.73,1.21,1.21,0,0,1-.91.12l-5.6-1.78a.63.63,0,0,0-.39,1.2l5.61,1.77h0a2.59,2.59,0,0,0,.68.09,2.52,2.52,0,0,0,1.2-.31A2.49,2.49,0,0,0,20.9,26l0-.15,4.7-1.3c.67-.23,1.57-.31,2,.6s-.66,1.64-.93,1.78Z"/><path id="Path_2079" data-name="Path 2079" class="cls-1" d="M31.38,2.13H27.66a.63.63,0,0,0-.63.62v.54H25.29a.63.63,0,0,0-.63.62v.18a4.3,4.3,0,0,1-2.28-.82,40.11,40.11,0,0,0-3.75-1.92h0a5.34,5.34,0,0,0-4.08.06L12,2.3,9.89.18A.64.64,0,0,0,9,.18l-7,7A.62.62,0,0,0,2,8H2l11.9,11.9a.69.69,0,0,0,.88,0l6.36-6.36.51,0a5,5,0,0,0,3.9-2.34h5.79a.62.62,0,0,0,.62-.62V2.75A.61.61,0,0,0,31.38,2.13ZM11,7.91a2.76,2.76,0,0,0,1.87,2.22h0l1.25.43a2.2,2.2,0,0,1-.63,1.13,2.31,2.31,0,0,1-3.27-3.26A2.63,2.63,0,0,1,11,7.91Zm1.25-2.43a2.45,2.45,0,0,0-1,1.07A3.56,3.56,0,0,0,8.41,10.7a3.49,3.49,0,0,0,1,1.87,3.55,3.55,0,0,0,5,0A3.49,3.49,0,0,0,15.36,11l2.11.72a4,4,0,0,0,.66,3.17l-1.42,1.42a4,4,0,0,0-4.65,0L5.69,9.91a4,4,0,0,0,0-4.65L7.12,3.84a4,4,0,0,0,4.65,0l1.35,1.35a2.27,2.27,0,0,0-.84.29ZM19,14a2.75,2.75,0,0,1-.4-1.3,4.64,4.64,0,0,0,1.1.59ZM9.44,1.51l1.43,1.42A2.71,2.71,0,0,1,8,2.93ZM4.79,6.16A2.71,2.71,0,0,1,4.79,9L3.37,7.59ZM14.38,18.6,13,17.17a2.71,2.71,0,0,1,2.85,0Zm7.31-6.26c-.22,0-.44,0-.65,0h0A3.6,3.6,0,0,1,18.73,11l-.08-.1a.61.61,0,0,0-.34-.29L13.34,9a1.4,1.4,0,0,1-1-1.65h0a1.25,1.25,0,0,1,.57-.74,1.28,1.28,0,0,1,.92-.11l5.6,1.78a.64.64,0,0,0,.78-.44.62.62,0,0,0-.4-.76l-4.46-1.4,0,0h0L13,3.28l2-.71h0s0,0,0,0a4.07,4.07,0,0,1,3.12,0,36.52,36.52,0,0,1,3.63,1.86,5.7,5.7,0,0,0,2.9,1v5A3.85,3.85,0,0,1,21.69,12.34Zm4.23-7.81H27V10H25.92ZM30.75,10H28.28V3.37h2.47Z"/></g></svg>