<svg id="Capa_1" data-name="Capa 1" xmlns="http://www.w3.org/2000/svg" viewBox="0 0 37.7 37.36"><defs><style>.cls-1{fill:#bfbfbf;}</style></defs><title>icon</title><g id="Group_3629" data-name="Group 3629"><path id="Path_2074" data-name="Path 2074" class="cls-1" d="M37,0H.76A.75.75,0,0,0,0,.75H0a.75.75,0,0,0,.75.76H2.17v22.1a2,2,0,0,0,2,2H33.65a2,2,0,0,0,2-2V1.52h1.27A.76.76,0,0,0,37.7.77h0A.74.74,0,0,0,37,0ZM34.16,23.62a.5.5,0,0,1-.5.5H4.2a.5.5,0,0,1-.5-.5V1.52H34.16Z"/><path id="Path_2075" data-name="Path 2075" class="cls-1" d="M20.06,30.68v-2h2.66a.76.76,0,1,0,0-1.52H15.77a.76.76,0,0,0,0,1.52h2.76v2l-5.38,5.38a.76.76,0,0,0,0,1.08h0a.76.76,0,0,0,1.08,0l4.3-4.3V36.6a.76.76,0,0,0,1.52,0V32.84l4.28,4.29a.78.78,0,0,0,1.08,0,.76.76,0,0,0,0-1.08h0Z"/><path id="Path_2076" data-name="Path 2076" class="cls-1" d="M21.73,11.19h5.83a.76.76,0,0,0,.76-.75h0a6.58,6.58,0,0,0-6.57-6.58h0A.76.76,0,0,0,21,4.6h0v5.82a.76.76,0,0,0,.76.76Zm.77-5.75a5,5,0,0,1,3,1.64,5.17,5.17,0,0,1,1.21,2.59H22.5Z"/><path id="Path_2077" data-name="Path 2077" class="cls-1" d="M18.46,21.79a8.18,8.18,0,0,0,8.18-8.18.74.74,0,0,0-.75-.76H19.23V6.21a.75.75,0,0,0-.75-.76h0a8.17,8.17,0,0,0,0,16.34ZM17.69,7v6.6a.76.76,0,0,0,.75.76h6.61A6.65,6.65,0,1,1,17.69,7Z"/></g></svg>