<svg id="Capa_1" data-name="Capa 1" xmlns="http://www.w3.org/2000/svg" viewBox="0 0 33.01 35.35"><defs><style>.cls-1{fill:#bfbfbf;}</style></defs><title>icon</title><g id="Group_3636" data-name="Group 3636"><path id="Path_2098" data-name="Path 2098" class="cls-1" d="M32.34,2.35h-4V.66A.66.66,0,0,0,27.66,0H23.54a.66.66,0,0,0-.66.65h0V2.35H10.19V.66A.65.65,0,0,0,9.54,0H5.35a.66.66,0,0,0-.66.65h0V2.35h-4A.66.66,0,0,0,0,3H0V34.69a.66.66,0,0,0,.65.66H32.34A.65.65,0,0,0,33,34.7h0V3C33.08,2.64,32.71,2.35,32.34,2.35Zm-.66,7.84V34H1.39V10.19ZM8.8,1.39v3.3H6.09V1.39Zm15.48,3.3V1.39h2.78v3.3ZM5.35,6.09H9.46a.66.66,0,0,0,.66-.66h0V3.74H22.81V5.43a.66.66,0,0,0,.65.66h4.12a.67.67,0,0,0,.66-.66h0V3.74h3.37V8.8H1.39V3.74h3.3V5.43A.73.73,0,0,0,5.35,6.09Z"/><path id="Path_2099" data-name="Path 2099" class="cls-1" d="M27.8,13.5H5.28V30.73H27.8ZM6.67,18.78v-4h3.89v4Zm0,5.28v-4h3.89v4Zm0,5.28v-4h3.89v4ZM12,18.78v-4h4v4Zm0,5.28v-4h4v4Zm0,5.28v-4h4v4Zm5.2-10.56v-4h4v4Zm0,5.28v-4h4v4Zm0,5.28v-4h4v4Zm5.28-10.56v-4h4v4Zm0,5.28v-4h4v4Zm0,5.28v-4h4v4Z"/></g></svg>