<svg id="Capa_1" data-name="Capa 1" xmlns="http://www.w3.org/2000/svg" viewBox="0 0 41.91 37.35"><defs><style>.cls-1{fill:#bfbfbf;}</style></defs><title>icon</title><g id="Group_3626" data-name="Group 3626"><path id="Path_2070" data-name="Path 2070" class="cls-1" d="M41.47,14.75,21.6.21a1.08,1.08,0,0,0-1.28,0L.45,14.75a1.08,1.08,0,0,0-.24,1.52,1.09,1.09,0,0,0,1.52.24h0L21,2.43,40.17,16.5a1.15,1.15,0,0,0,.64.22,1.1,1.1,0,0,0,.88-.45,1.07,1.07,0,0,0-.2-1.5Z"/><path id="Path_2071" data-name="Path 2071" class="cls-1" d="M36.2,16.75a1.09,1.09,0,0,0-1.09,1.09V35.17H26.4V25.71a5.44,5.44,0,0,0-10.88-.14.33.33,0,0,0,0,.14v9.46H6.81V17.84a1.09,1.09,0,0,0-2.18,0V36.26a1.09,1.09,0,0,0,1.09,1.09H16.6a1.1,1.1,0,0,0,1.09-1s0-.05,0-.08V25.71a3.27,3.27,0,0,1,6.53-.11V36.26a.19.19,0,0,0,0,.08,1.09,1.09,0,0,0,1.09,1H36.21a1.09,1.09,0,0,0,1.09-1.09V17.84A1.11,1.11,0,0,0,36.2,16.75Z"/></g></svg>