<svg id="Capa_1" data-name="Capa 1" xmlns="http://www.w3.org/2000/svg" viewBox="0 0 23.89 19.97"><defs><style>.cls-1{fill:#bfbfbf;}</style></defs><title>patient</title><g id="Group_3649" data-name="Group 3649"><path id="Path_2100-2" data-name="Path 2100-2" class="cls-1" d="M2.74,12h0a3,3,0,0,0,1-.21l2.36,3.4a.51.51,0,0,0,.7.13A.49.49,0,0,0,7,15.21l2.36-3.4a3,3,0,0,0,1,.21h.05a1.75,1.75,0,0,1,1.43.73.46.46,0,0,0,.4.21.42.42,0,0,0,.29-.09.5.5,0,0,0,.12-.7h0A2.78,2.78,0,0,0,10.53,11h-.06a2.12,2.12,0,0,1-2.1-1.86,3.9,3.9,0,0,0,.86-.86,5.41,5.41,0,0,0,1-2.51.42.42,0,0,0,.09-.14A4.21,4.21,0,0,0,10.62,4,3.87,3.87,0,0,0,6.9,0,3.41,3.41,0,0,0,5.37.36a2.36,2.36,0,0,0-.53.1C3.13,1,2.16,3,2.68,5.07a5.27,5.27,0,0,0,.2.6L3,5.81A4.92,4.92,0,0,0,4.79,9.15,2.1,2.1,0,0,1,2.69,11h0A2.74,2.74,0,0,0,0,13.76V16.7a.5.5,0,0,0,.5.5H9.3a.5.5,0,0,0,0-1H1V13.75A1.74,1.74,0,0,1,2.74,12ZM5.11,1.42a2,2,0,0,1,.41-.07.37.37,0,0,0,.21-.06A2.5,2.5,0,0,1,6.9,1,2.86,2.86,0,0,1,9.61,3.9a1.79,1.79,0,0,0-1.07-.36H5.94a.6.6,0,0,1-.36-.12.55.55,0,0,1-.2-.25.57.57,0,0,0-.58-.36.58.58,0,0,0-.53.43,3.43,3.43,0,0,1-.68,1.33A2.66,2.66,0,0,1,5.11,1.41ZM3.94,5.63A4.27,4.27,0,0,0,5,4.22H5a1.53,1.53,0,0,0,.95.32h2.6A.79.79,0,0,1,9.24,5a4.72,4.72,0,0,1-.83,2.73A2.36,2.36,0,0,1,6.57,8.77a2.24,2.24,0,0,1-1.73-.93A4.36,4.36,0,0,1,3.94,5.63ZM6.57,9.76a3.16,3.16,0,0,0,.87-.13,3.08,3.08,0,0,0,1,1.67l-1.9,2.75L4.68,11.3a3.12,3.12,0,0,0,1-1.67A3.14,3.14,0,0,0,6.57,9.76Z"/><path id="Path_2101-2" data-name="Path 2101-2" class="cls-1" d="M21.26,13.79h-.05a2.11,2.11,0,0,1-2.1-1.87A4.32,4.32,0,0,0,20.55,10a.52.52,0,0,0,.33.33l.15,0a.51.51,0,0,0,.39-.19,5.25,5.25,0,0,0-.16-6.43A3.64,3.64,0,0,0,18.51,2.4h-.22a3.58,3.58,0,0,0-1.67-.34,4.09,4.09,0,0,0-3.11,1.68,5.79,5.79,0,0,0-1.13,3.73,6.37,6.37,0,0,0,0,.65,5.86,5.86,0,0,0,.49,1.69.49.49,0,0,0,.66.24.48.48,0,0,0,.21-.19l.15-.23a5,5,0,0,0,1,1.76,3,3,0,0,0,.59.53,2.11,2.11,0,0,1-2.1,1.87h0a2.74,2.74,0,0,0-2.64,2.74v2.94a.5.5,0,0,0,.5.5H23.39a.5.5,0,0,0,.5-.5V16.53A2.74,2.74,0,0,0,21.26,13.79ZM13.55,8.57A3.86,3.86,0,0,1,13.43,8a4.89,4.89,0,0,1,0-.55,4.84,4.84,0,0,1,.94-3.09,3.1,3.1,0,0,1,2.34-1.29,2.78,2.78,0,0,1,1.32.3.49.49,0,0,0,.24,0l.27,0a2.73,2.73,0,0,1,2,1,4.14,4.14,0,0,1,.94,2.54,4.47,4.47,0,0,1-.22,1.5c-.05-.13-.1-.25-.16-.37a4.47,4.47,0,0,0-2.28-2.23.5.5,0,0,0-.66.28,2.45,2.45,0,0,1-.24.52,1.49,1.49,0,0,1-1.37.73h-.27A3.85,3.85,0,0,0,15,7.59,4.48,4.48,0,0,0,13.55,8.57Zm1.22.27a3.41,3.41,0,0,1,.6-.31,3,3,0,0,1,.94-.18h.2a2.45,2.45,0,0,0,2.27-1.23A1.09,1.09,0,0,0,18.86,7,3.55,3.55,0,0,1,20,8.12v.05a4.34,4.34,0,0,1-.92,2.44,2.26,2.26,0,0,1-1.73.93c-1.19,0-2.23-1.13-2.57-2.7Zm2.56,3.68a2.87,2.87,0,0,0,.87-.13,3,3,0,0,0,1.48,2,2.44,2.44,0,0,1-4.7,0,3.09,3.09,0,0,0,1.49-2,2.7,2.7,0,0,0,.85.14ZM22.91,19H11.75V16.53a1.74,1.74,0,0,1,1.74-1.75h0a2.83,2.83,0,0,0,.5,0,3.43,3.43,0,0,0,6.56,0,2.83,2.83,0,0,0,.5,0h0a1.74,1.74,0,0,1,1.74,1.75Z"/></g></svg>