<svg id="Capa_1" data-name="Capa 1" xmlns="http://www.w3.org/2000/svg" viewBox="0 0 16.73 17.3"><defs><style>.cls-1{fill:#fff;}</style></defs><title>print</title><g id="Group_4391" data-name="Group 4391"><path id="Path_2261" data-name="Path 2261" class="cls-1" d="M16.73,12.06V5.75A1.53,1.53,0,0,0,15.2,4.23H13.55V1a1,1,0,0,0-1-1H4.18a1,1,0,0,0-1,1V4.24H1.53A1.51,1.51,0,0,0,0,5.74H0v6.31a1.52,1.52,0,0,0,1.53,1.53H3.18v2.69a1,1,0,0,0,1,1h8.35a1,1,0,0,0,1-1V13.59h1.65a1.53,1.53,0,0,0,1.52-1.53ZM4,1A.14.14,0,0,1,4.19.87h8.35a.15.15,0,0,1,.15.14V4.24H4Zm8.65,15.27a.15.15,0,0,1-.15.15H4.19A.15.15,0,0,1,4,16.28V9.34h8.65v6.94Zm.43-7.8H3.61a.43.43,0,0,0-.43.43v3.82H1.53a.68.68,0,0,1-.67-.67V5.75a.67.67,0,0,1,.67-.66H15.2a.66.66,0,0,1,.66.66v6.31a.67.67,0,0,1-.66.67H13.55V8.91a.42.42,0,0,0-.42-.43Z"/><path id="Path_2262" data-name="Path 2262" class="cls-1" d="M2.24,6.47a.44.44,0,0,0,0,.62.43.43,0,0,0,.61,0h0a.43.43,0,0,0,0-.62.46.46,0,0,0-.62,0Z"/><path id="Path_2263" data-name="Path 2263" class="cls-1" d="M10.82,12.45H5.91a.44.44,0,0,0,0,.87h4.9a.44.44,0,0,0,.43-.44.42.42,0,0,0-.42-.43h0Z"/><path id="Path_2264" data-name="Path 2264" class="cls-1" d="M10.82,14.41H5.91a.43.43,0,0,0-.43.43.44.44,0,0,0,.43.44h4.9a.44.44,0,0,0,.43-.44.42.42,0,0,0-.42-.43h0Z"/><path id="Path_2265" data-name="Path 2265" class="cls-1" d="M10.82,10.49H5.91a.43.43,0,1,0,0,.86h4.9a.43.43,0,0,0,.43-.43.42.42,0,0,0-.42-.43h0Z"/></g></svg>